{
  "version": "1.1.3",
  "modules": [
    {
      "id": 1,
      "plugin": "Core",
      "version": "1.1.3",
      "model": "AudioInterface",
      "params": [],
      "leftModuleId": 97,
      "rightModuleId": 122,
      "data": {
        "audio": {
          "driver": 6,
          "deviceName": "Speakers (Realtek High Definition Audio)",
          "offset": 0,
          "maxChannels": 8,
          "sampleRate": 44100,
          "blockSize": 256
        }
      },
      "pos": [
        199,
        0
      ]
    },
    {
      "id": 4,
      "plugin": "Fundamental",
      "version": "1.2.0",
      "model": "VCF",
      "params": [
        {
          "id": 0,
          "value": 0.696999967
        },
        {
          "id": 1,
          "value": 0.0
        },
        {
          "id": 2,
          "value": 0.240000099
        },
        {
          "id": 3,
          "value": 1.0
        },
        {
          "id": 4,
          "value": 0.464499831
        }
      ],
      "leftModuleId": 91,
      "rightModuleId": 118,
      "pos": [
        157,
        0
      ]
    },
    {
      "id": 5,
      "plugin": "Core",
      "version": "1.1.3",
      "model": "MIDIToCVInterface",
      "params": [],
      "leftModuleId": 119,
      "rightModuleId": 105,
      "data": {
        "channels": 1,
        "polyMode": 0,
        "clockDivision": 24,
        "lastPitch": 8192,
        "lastMod": 0,
        "midi": {
          "driver": 4,
          "deviceName": "moi 1",
          "channel": 0
        }
      },
      "pos": [
        89,
        0
      ]
    },
    {
      "id": 86,
      "plugin": "Fundamental",
      "version": "1.2.0",
      "model": "SEQ3",
      "params": [
        {
          "id": 0,
          "value": 1.98399973
        },
        {
          "id": 1,
          "value": 0.0
        },
        {
          "id": 2,
          "value": 0.0
        },
        {
          "id": 3,
          "value": 8.0
        },
        {
          "id": 4,
          "value": 3.34500027
        },
        {
          "id": 5,
          "value": 5.80500078
        },
        {
          "id": 6,
          "value": 5.31000042
        },
        {
          "id": 7,
          "value": 8.62500095
        },
        {
          "id": 8,
          "value": 1.93499994
        },
        {
          "id": 9,
          "value": 0.0
        },
        {
          "id": 10,
          "value": 0.0
        },
        {
          "id": 11,
          "value": 0.0
        },
        {
          "id": 12,
          "value": 0.0
        },
        {
          "id": 13,
          "value": 7.68000031
        },
        {
          "id": 14,
          "value": 2.02500057
        },
        {
          "id": 15,
          "value": 3.88500023
        },
        {
          "id": 16,
          "value": 4.59000015
        },
        {
          "id": 17,
          "value": 5.8200016
        },
        {
          "id": 18,
          "value": 7.70999908
        },
        {
          "id": 19,
          "value": 0.0
        },
        {
          "id": 20,
          "value": 0.0
        },
        {
          "id": 21,
          "value": 0.0
        },
        {
          "id": 22,
          "value": 0.0
        },
        {
          "id": 23,
          "value": 0.0
        },
        {
          "id": 24,
          "value": 0.0
        },
        {
          "id": 25,
          "value": 0.0
        },
        {
          "id": 26,
          "value": 0.0
        },
        {
          "id": 27,
          "value": 0.0
        },
        {
          "id": 28,
          "value": 0.0
        },
        {
          "id": 29,
          "value": 0.0
        },
        {
          "id": 30,
          "value": 0.0
        },
        {
          "id": 31,
          "value": 0.0
        },
        {
          "id": 32,
          "value": 0.0
        },
        {
          "id": 33,
          "value": 0.0
        },
        {
          "id": 34,
          "value": 0.0
        },
        {
          "id": 35,
          "value": 0.0
        }
      ],
      "leftModuleId": 87,
      "data": {
        "running": true,
        "gates": [
          1,
          1,
          1,
          1,
          1,
          1,
          1,
          1
        ]
      },
      "pos": [
        119,
        1
      ]
    },
    {
      "id": 87,
      "plugin": "Bogaudio",
      "version": "1.1.22",
      "model": "Bogaudio-Mult",
      "params": [],
      "leftModuleId": 89,
      "rightModuleId": 86,
      "pos": [
        116,
        1
      ]
    },
    {
      "id": 88,
      "plugin": "Fundamental",
      "version": "1.2.0",
      "model": "SEQ3",
      "params": [
        {
          "id": 0,
          "value": 2.0
        },
        {
          "id": 1,
          "value": 0.0
        },
        {
          "id": 2,
          "value": 0.0
        },
        {
          "id": 3,
          "value": 7.0
        },
        {
          "id": 4,
          "value": 0.0
        },
        {
          "id": 5,
          "value": 0.0
        },
        {
          "id": 6,
          "value": 0.0
        },
        {
          "id": 7,
          "value": 0.0
        },
        {
          "id": 8,
          "value": 0.0
        },
        {
          "id": 9,
          "value": 0.0
        },
        {
          "id": 10,
          "value": 0.0
        },
        {
          "id": 11,
          "value": 0.0
        },
        {
          "id": 12,
          "value": 0.0
        },
        {
          "id": 13,
          "value": 0.0
        },
        {
          "id": 14,
          "value": 0.0
        },
        {
          "id": 15,
          "value": 0.0
        },
        {
          "id": 16,
          "value": 0.0
        },
        {
          "id": 17,
          "value": 0.0150000006
        },
        {
          "id": 18,
          "value": 0.0
        },
        {
          "id": 19,
          "value": 0.0
        },
        {
          "id": 20,
          "value": 0.0
        },
        {
          "id": 21,
          "value": 0.0
        },
        {
          "id": 22,
          "value": 0.0
        },
        {
          "id": 23,
          "value": 0.0
        },
        {
          "id": 24,
          "value": 0.0
        },
        {
          "id": 25,
          "value": 0.0
        },
        {
          "id": 26,
          "value": 0.0
        },
        {
          "id": 27,
          "value": 0.0
        },
        {
          "id": 28,
          "value": 0.0
        },
        {
          "id": 29,
          "value": 0.0
        },
        {
          "id": 30,
          "value": 0.0
        },
        {
          "id": 31,
          "value": 0.0
        },
        {
          "id": 32,
          "value": 0.0
        },
        {
          "id": 33,
          "value": 0.0
        },
        {
          "id": 34,
          "value": 0.0
        },
        {
          "id": 35,
          "value": 0.0
        }
      ],
      "leftModuleId": 100,
      "rightModuleId": 91,
      "data": {
        "running": true,
        "gates": [
          1,
          1,
          1,
          1,
          1,
          1,
          1,
          1
        ]
      },
      "pos": [
        119,
        0
      ]
    },
    {
      "id": 89,
      "plugin": "Fundamental",
      "version": "1.2.0",
      "model": "LFO",
      "params": [
        {
          "id": 0,
          "value": 1.0
        },
        {
          "id": 1,
          "value": 1.0
        },
        {
          "id": 2,
          "value": 1.57599902
        },
        {
          "id": 3,
          "value": 0.0
        },
        {
          "id": 4,
          "value": 0.0
        },
        {
          "id": 5,
          "value": 0.5
        },
        {
          "id": 6,
          "value": 1.0
        }
      ],
      "leftModuleId": 104,
      "rightModuleId": 87,
      "pos": [
        106,
        1
      ]
    },
    {
      "id": 91,
      "plugin": "AudibleInstruments",
      "version": "1.0.0",
      "model": "Braids",
      "params": [
        {
          "id": 0,
          "value": 0.00999987405
        },
        {
          "id": 1,
          "value": -1.53199995
        },
        {
          "id": 2,
          "value": -0.0129999798
        },
        {
          "id": 3,
          "value": 0.0
        },
        {
          "id": 4,
          "value": -0.00099993404
        },
        {
          "id": 5,
          "value": 0.0
        },
        {
          "id": 6,
          "value": 0.878499448
        }
      ],
      "leftModuleId": 88,
      "rightModuleId": 4,
      "data": {
        "settings": [
          40,
          0,
          0,
          0,
          0,
          0,
          0,
          0,
          0,
          0,
          0,
          0,
          0,
          0,
          0,
          0,
          0,
          0,
          0,
          0
        ],
        "lowCpu": false
      },
      "pos": [
        141,
        0
      ]
    },
    {
      "id": 93,
      "plugin": "Fundamental",
      "version": "1.2.0",
      "model": "ADSR",
      "params": [
        {
          "id": 0,
          "value": 0.247500017
        },
        {
          "id": 1,
          "value": 0.902500093
        },
        {
          "id": 2,
          "value": 0.0
        },
        {
          "id": 3,
          "value": 0.116499744
        }
      ],
      "rightModuleId": 101,
      "pos": [
        147,
        1
      ]
    },
    {
      "id": 94,
      "plugin": "AudibleInstruments",
      "version": "1.0.0",
      "model": "Braids",
      "params": [
        {
          "id": 0,
          "value": -0.00699999975
        },
        {
          "id": 1,
          "value": -2.0
        },
        {
          "id": 2,
          "value": -0.0179999806
        },
        {
          "id": 3,
          "value": 0.0945001096
        },
        {
          "id": 4,
          "value": 0.0109997969
        },
        {
          "id": 5,
          "value": 0.0
        },
        {
          "id": 6,
          "value": 0.0825000033
        }
      ],
      "rightModuleId": 120,
      "data": {
        "settings": [
          4,
          0,
          0,
          0,
          0,
          0,
          0,
          0,
          0,
          0,
          0,
          0,
          0,
          0,
          0,
          0,
          0,
          0,
          0,
          0
        ],
        "lowCpu": false
      },
      "pos": [
        164,
        1
      ]
    },
    {
      "id": 97,
      "plugin": "AudibleInstruments",
      "version": "1.0.0",
      "model": "Links",
      "params": [],
      "rightModuleId": 1,
      "pos": [
        195,
        0
      ]
    },
    {
      "id": 100,
      "plugin": "Fundamental",
      "version": "1.2.0",
      "model": "ADSR",
      "params": [
        {
          "id": 0,
          "value": 0.564999819
        },
        {
          "id": 1,
          "value": 0.618499875
        },
        {
          "id": 2,
          "value": 1.0
        },
        {
          "id": 3,
          "value": 0.758000374
        }
      ],
      "rightModuleId": 88,
      "pos": [
        111,
        0
      ]
    },
    {
      "id": 101,
      "plugin": "Fundamental",
      "version": "1.2.0",
      "model": "ADSR",
      "params": [
        {
          "id": 0,
          "value": 0.0
        },
        {
          "id": 1,
          "value": 0.204000041
        },
        {
          "id": 2,
          "value": 0.0
        },
        {
          "id": 3,
          "value": 0.0
        }
      ],
      "leftModuleId": 93,
      "pos": [
        155,
        1
      ]
    },
    {
      "id": 102,
      "plugin": "Core",
      "version": "1.1.3",
      "model": "MIDI-Map",
      "params": [],
      "data": {
        "maps": [
          {
            "cc": 51,
            "moduleId": 91,
            "paramId": 5
          },
          {
            "cc": 51,
            "moduleId": -1,
            "paramId": 0
          },
          {
            "cc": -1,
            "moduleId": -1,
            "paramId": 0
          }
        ],
        "midi": {
          "driver": 4,
          "channel": -1
        }
      },
      "pos": [
        54,
        0
      ]
    },
    {
      "id": 103,
      "plugin": "Fundamental",
      "version": "1.2.0",
      "model": "VCO",
      "params": [
        {
          "id": 0,
          "value": 1.0
        },
        {
          "id": 1,
          "value": 1.0
        },
        {
          "id": 2,
          "value": -18.090004
        },
        {
          "id": 3,
          "value": -1.0
        },
        {
          "id": 4,
          "value": 0.996999979
        },
        {
          "id": 5,
          "value": 0.5
        },
        {
          "id": 6,
          "value": 0.904500008
        }
      ],
      "rightModuleId": 104,
      "pos": [
        88,
        1
      ]
    },
    {
      "id": 104,
      "plugin": "Fundamental",
      "version": "1.2.0",
      "model": "ADSR",
      "params": [
        {
          "id": 0,
          "value": 0.0709999651
        },
        {
          "id": 1,
          "value": 0.5
        },
        {
          "id": 2,
          "value": 0.5
        },
        {
          "id": 3,
          "value": 0.5
        }
      ],
      "leftModuleId": 103,
      "rightModuleId": 89,
      "pos": [
        98,
        1
      ]
    },
    {
      "id": 105,
      "plugin": "Fundamental",
      "version": "1.2.0",
      "model": "VCA",
      "params": [
        {
          "id": 0,
          "value": 1.0
        },
        {
          "id": 1,
          "value": 1.0
        }
      ],
      "leftModuleId": 5,
      "rightModuleId": 106,
      "pos": [
        97,
        0
      ]
    },
    {
      "id": 106,
      "plugin": "Fundamental",
      "version": "1.2.0",
      "model": "VCF",
      "params": [
        {
          "id": 0,
          "value": 0.821999967
        },
        {
          "id": 1,
          "value": 0.808499992
        },
        {
          "id": 2,
          "value": 0.0
        },
        {
          "id": 3,
          "value": 0.00200000964
        },
        {
          "id": 4,
          "value": 0.321000069
        }
      ],
      "leftModuleId": 105,
      "pos": [
        102,
        0
      ]
    },
    {
      "id": 107,
      "plugin": "AudibleInstruments",
      "version": "1.0.0",
      "model": "Braids",
      "params": [
        {
          "id": 0,
          "value": 0.0159999114
        },
        {
          "id": 1,
          "value": -1.6880002
        },
        {
          "id": 2,
          "value": -0.0129999798
        },
        {
          "id": 3,
          "value": 0.173999816
        },
        {
          "id": 4,
          "value": 0.0320000537
        },
        {
          "id": 5,
          "value": 0.672999978
        },
        {
          "id": 6,
          "value": 0.848499596
        }
      ],
      "leftModuleId": 121,
      "data": {
        "settings": [
          39,
          0,
          0,
          0,
          0,
          0,
          0,
          0,
          0,
          0,
          0,
          0,
          0,
          0,
          0,
          0,
          0,
          0,
          0,
          0
        ],
        "lowCpu": false
      },
      "pos": [
        10,
        1
      ]
    },
    {
      "id": 108,
      "plugin": "AudibleInstruments",
      "version": "1.0.0",
      "model": "Clouds",
      "params": [
        {
          "id": 0,
          "value": 0.0
        },
        {
          "id": 1,
          "value": 0.0
        },
        {
          "id": 2,
          "value": 0.0
        },
        {
          "id": 3,
          "value": 0.5
        },
        {
          "id": 4,
          "value": 0.5
        },
        {
          "id": 5,
          "value": 0.00399999507
        },
        {
          "id": 6,
          "value": 0.675999939
        },
        {
          "id": 7,
          "value": 0.513999879
        },
        {
          "id": 8,
          "value": 0.483999848
        },
        {
          "id": 9,
          "value": 0.501000106
        },
        {
          "id": 10,
          "value": 0.0
        },
        {
          "id": 11,
          "value": 0.0
        },
        {
          "id": 12,
          "value": 0.0
        }
      ],
      "rightModuleId": 114,
      "data": {
        "playback": 0,
        "quality": 0,
        "blendMode": 0
      },
      "pos": [
        39,
        2
      ]
    },
    {
      "id": 110,
      "plugin": "AudibleInstruments",
      "version": "1.0.0",
      "model": "Links",
      "params": [],
      "leftModuleId": 116,
      "rightModuleId": 117,
      "pos": [
        93,
        2
      ]
    },
    {
      "id": 112,
      "plugin": "AudibleInstruments",
      "version": "1.0.0",
      "model": "Braids",
      "params": [
        {
          "id": 0,
          "value": 0.0159999114
        },
        {
          "id": 1,
          "value": -1.87999976
        },
        {
          "id": 2,
          "value": -0.0129999798
        },
        {
          "id": 3,
          "value": 1.0
        },
        {
          "id": 4,
          "value": 0.0320000537
        },
        {
          "id": 5,
          "value": 0.443500072
        },
        {
          "id": 6,
          "value": 0.471999079
        }
      ],
      "rightModuleId": 113,
      "data": {
        "settings": [
          22,
          0,
          0,
          0,
          0,
          0,
          0,
          0,
          0,
          0,
          0,
          0,
          0,
          0,
          0,
          0,
          0,
          0,
          0,
          0
        ],
        "lowCpu": false
      },
      "pos": [
        31,
        1
      ]
    },
    {
      "id": 113,
      "plugin": "AudibleInstruments",
      "version": "1.0.0",
      "model": "Braids",
      "params": [
        {
          "id": 0,
          "value": 0.0159999114
        },
        {
          "id": 1,
          "value": -0.0559996329
        },
        {
          "id": 2,
          "value": -0.0129999798
        },
        {
          "id": 3,
          "value": 0.504999876
        },
        {
          "id": 4,
          "value": 0.0320000537
        },
        {
          "id": 5,
          "value": 0.672999978
        },
        {
          "id": 6,
          "value": 0.430000007
        }
      ],
      "leftModuleId": 112,
      "data": {
        "settings": [
          20,
          0,
          0,
          0,
          0,
          0,
          0,
          0,
          0,
          0,
          0,
          0,
          0,
          0,
          0,
          0,
          0,
          0,
          0,
          0
        ],
        "lowCpu": false
      },
      "pos": [
        47,
        1
      ]
    },
    {
      "id": 114,
      "plugin": "AudibleInstruments",
      "version": "1.0.0",
      "model": "Clouds",
      "params": [
        {
          "id": 0,
          "value": 0.0
        },
        {
          "id": 1,
          "value": 0.0
        },
        {
          "id": 2,
          "value": 0.0
        },
        {
          "id": 3,
          "value": 0.5
        },
        {
          "id": 4,
          "value": 0.5
        },
        {
          "id": 5,
          "value": 0.00399999507
        },
        {
          "id": 6,
          "value": 0.675999939
        },
        {
          "id": 7,
          "value": 0.627000272
        },
        {
          "id": 8,
          "value": 0.483999848
        },
        {
          "id": 9,
          "value": 0.501000106
        },
        {
          "id": 10,
          "value": 0.0
        },
        {
          "id": 11,
          "value": 0.0
        },
        {
          "id": 12,
          "value": 0.0
        }
      ],
      "leftModuleId": 108,
      "rightModuleId": 116,
      "data": {
        "playback": 0,
        "quality": 0,
        "blendMode": 0
      },
      "pos": [
        57,
        2
      ]
    },
    {
      "id": 115,
      "plugin": "AudibleInstruments",
      "version": "1.0.0",
      "model": "Braids",
      "params": [
        {
          "id": 0,
          "value": -0.0140002985
        },
        {
          "id": 1,
          "value": -0.530000269
        },
        {
          "id": 2,
          "value": -0.0129999798
        },
        {
          "id": 3,
          "value": 0.061500039
        },
        {
          "id": 4,
          "value": 0.00499989279
        },
        {
          "id": 5,
          "value": 0.635999918
        },
        {
          "id": 6,
          "value": 0.112499803
        }
      ],
      "data": {
        "settings": [
          5,
          0,
          0,
          0,
          0,
          0,
          0,
          0,
          0,
          0,
          0,
          0,
          0,
          0,
          0,
          0,
          0,
          0,
          0,
          0
        ],
        "lowCpu": false
      },
      "pos": [
        64,
        1
      ]
    },
    {
      "id": 116,
      "plugin": "AudibleInstruments",
      "version": "1.0.0",
      "model": "Clouds",
      "params": [
        {
          "id": 0,
          "value": 0.0
        },
        {
          "id": 1,
          "value": 0.0
        },
        {
          "id": 2,
          "value": 0.0
        },
        {
          "id": 3,
          "value": 0.500999987
        },
        {
          "id": 4,
          "value": 0.5
        },
        {
          "id": 5,
          "value": 0.0319999307
        },
        {
          "id": 6,
          "value": 0.51849997
        },
        {
          "id": 7,
          "value": 0.508000135
        },
        {
          "id": 8,
          "value": 0.495000035
        },
        {
          "id": 9,
          "value": 0.478000134
        },
        {
          "id": 10,
          "value": 0.0
        },
        {
          "id": 11,
          "value": 0.0
        },
        {
          "id": 12,
          "value": 0.0
        }
      ],
      "leftModuleId": 114,
      "rightModuleId": 110,
      "data": {
        "playback": 0,
        "quality": 0,
        "blendMode": 0
      },
      "pos": [
        75,
        2
      ]
    },
    {
      "id": 117,
      "plugin": "AudibleInstruments",
      "version": "1.0.0",
      "model": "Links",
      "params": [],
      "leftModuleId": 110,
      "rightModuleId": 124,
      "pos": [
        97,
        2
      ]
    },
    {
      "id": 118,
      "plugin": "Bogaudio",
      "version": "1.1.22",
      "model": "Bogaudio-Mix8",
      "params": [
        {
          "id": 0,
          "value": 0.80399996
        },
        {
          "id": 1,
          "value": 0.0
        },
        {
          "id": 2,
          "value": 0.0
        },
        {
          "id": 3,
          "value": 0.713999867
        },
        {
          "id": 4,
          "value": 0.0
        },
        {
          "id": 5,
          "value": 0.0
        },
        {
          "id": 6,
          "value": 0.525999963
        },
        {
          "id": 7,
          "value": 0.0
        },
        {
          "id": 8,
          "value": 0.0
        },
        {
          "id": 9,
          "value": 0.350500047
        },
        {
          "id": 10,
          "value": 0.0
        },
        {
          "id": 11,
          "value": 0.0
        },
        {
          "id": 12,
          "value": 0.779499948
        },
        {
          "id": 13,
          "value": 0.0
        },
        {
          "id": 14,
          "value": 0.0
        },
        {
          "id": 15,
          "value": 0.48150003
        },
        {
          "id": 16,
          "value": 0.0
        },
        {
          "id": 17,
          "value": 0.0
        },
        {
          "id": 18,
          "value": 0.909090936
        },
        {
          "id": 19,
          "value": 0.0
        },
        {
          "id": 20,
          "value": 0.0
        },
        {
          "id": 21,
          "value": 0.909090936
        },
        {
          "id": 22,
          "value": 0.0
        },
        {
          "id": 23,
          "value": 0.0
        },
        {
          "id": 24,
          "value": 0.862000167
        },
        {
          "id": 25,
          "value": 0.0
        }
      ],
      "leftModuleId": 4,
      "pos": [
        165,
        0
      ]
    },
    {
      "id": 119,
      "plugin": "Core",
      "version": "1.1.3",
      "model": "MIDIToCVInterface",
      "params": [],
      "leftModuleId": 129,
      "rightModuleId": 5,
      "data": {
        "channels": 1,
        "polyMode": 0,
        "clockDivision": 24,
        "lastPitch": 8192,
        "lastMod": 0,
        "midi": {
          "driver": 4,
          "deviceName": "moi 1",
          "channel": -1
        }
      },
      "pos": [
        81,
        0
      ]
    },
    {
      "id": 120,
      "plugin": "Befaco",
      "version": "1.0.0",
      "model": "SpringReverb",
      "params": [
        {
          "id": 0,
          "value": 1.0
        },
        {
          "id": 1,
          "value": 0.660999835
        },
        {
          "id": 2,
          "value": 1.0
        },
        {
          "id": 3,
          "value": 0.5
        }
      ],
      "leftModuleId": 94,
      "pos": [
        180,
        1
      ]
    },
    {
      "id": 121,
      "plugin": "Fundamental",
      "version": "1.2.0",
      "model": "LFO",
      "params": [
        {
          "id": 0,
          "value": 1.0
        },
        {
          "id": 1,
          "value": 1.0
        },
        {
          "id": 2,
          "value": -1.28599942
        },
        {
          "id": 3,
          "value": 0.685500026
        },
        {
          "id": 4,
          "value": 0.810000002
        },
        {
          "id": 5,
          "value": 0.619559526
        },
        {
          "id": 6,
          "value": 0.444999993
        }
      ],
      "rightModuleId": 107,
      "pos": [
        0,
        1
      ]
    },
    {
      "id": 122,
      "plugin": "Fundamental",
      "version": "1.2.0",
      "model": "LFO",
      "params": [
        {
          "id": 0,
          "value": 1.0
        },
        {
          "id": 1,
          "value": 1.0
        },
        {
          "id": 2,
          "value": -4.42700005
        },
        {
          "id": 3,
          "value": 0.0
        },
        {
          "id": 4,
          "value": 0.0
        },
        {
          "id": 5,
          "value": 0.5
        },
        {
          "id": 6,
          "value": 0.0
        }
      ],
      "leftModuleId": 1,
      "pos": [
        209,
        0
      ]
    },
    {
      "id": 123,
      "plugin": "Fundamental",
      "version": "1.2.0",
      "model": "LFO",
      "params": [
        {
          "id": 0,
          "value": 1.0
        },
        {
          "id": 1,
          "value": 1.0
        },
        {
          "id": 2,
          "value": -1.01600254
        },
        {
          "id": 3,
          "value": 0.0
        },
        {
          "id": 4,
          "value": 0.0
        },
        {
          "id": 5,
          "value": 0.5
        },
        {
          "id": 6,
          "value": 0.0
        }
      ],
      "leftModuleId": 128,
      "pos": [
        113,
        2
      ]
    },
    {
      "id": 124,
      "plugin": "Fundamental",
      "version": "1.2.0",
      "model": "VCF",
      "params": [
        {
          "id": 0,
          "value": 0.73150003
        },
        {
          "id": 1,
          "value": 0.0
        },
        {
          "id": 2,
          "value": 0.0
        },
        {
          "id": 3,
          "value": 0.0
        },
        {
          "id": 4,
          "value": 0.221999958
        }
      ],
      "leftModuleId": 117,
      "rightModuleId": 128,
      "pos": [
        101,
        2
      ]
    },
    {
      "id": 125,
      "plugin": "ML_modules",
      "version": "1.0.2",
      "model": "FreeVerb",
      "params": [
        {
          "id": 0,
          "value": 0.0684999898
        },
        {
          "id": 1,
          "value": 0.786000252
        },
        {
          "id": 2,
          "value": 0.0
        }
      ],
      "pos": [
        80,
        3
      ]
    },
    {
      "id": 128,
      "plugin": "AudibleInstruments",
      "version": "1.0.0",
      "model": "Links",
      "params": [],
      "leftModuleId": 124,
      "rightModuleId": 123,
      "pos": [
        109,
        2
      ]
    },
    {
      "id": 129,
      "plugin": "Fundamental",
      "version": "1.2.0",
      "model": "VCO",
      "params": [
        {
          "id": 0,
          "value": 1.0
        },
        {
          "id": 1,
          "value": 1.0
        },
        {
          "id": 2,
          "value": -9.28799343
        },
        {
          "id": 3,
          "value": 0.0
        },
        {
          "id": 4,
          "value": 0.0
        },
        {
          "id": 5,
          "value": 0.5
        },
        {
          "id": 6,
          "value": 0.0
        }
      ],
      "rightModuleId": 119,
      "pos": [
        71,
        0
      ]
    }
  ],
  "cables": [
    {
      "id": 1010,
      "outputModuleId": 88,
      "outputId": 3,
      "inputModuleId": 91,
      "inputId": 4,
      "color": "#c9b70e"
    },
    {
      "id": 1027,
      "outputModuleId": 91,
      "outputId": 0,
      "inputModuleId": 4,
      "inputId": 3,
      "color": "#c91847"
    },
    {
      "id": 1042,
      "outputModuleId": 88,
      "outputId": 2,
      "inputModuleId": 91,
      "inputId": 3,
      "color": "#c91847"
    },
    {
      "id": 1030,
      "outputModuleId": 93,
      "outputId": 0,
      "inputModuleId": 4,
      "inputId": 0,
      "color": "#0c8e15"
    },
    {
      "id": 1058,
      "outputModuleId": 97,
      "outputId": 4,
      "inputModuleId": 1,
      "inputId": 0,
      "color": "#0986ad"
    },
    {
      "id": 1060,
      "outputModuleId": 88,
      "outputId": 3,
      "inputModuleId": 94,
      "inputId": 4,
      "color": "#c9b70e"
    },
    {
      "id": 1029,
      "outputModuleId": 89,
      "outputId": 3,
      "inputModuleId": 93,
      "inputId": 4,
      "color": "#c9b70e"
    },
    {
      "id": 1070,
      "outputModuleId": 5,
      "outputId": 1,
      "inputModuleId": 100,
      "inputId": 4,
      "color": "#c9b70e"
    },
    {
      "id": 1059,
      "outputModuleId": 89,
      "outputId": 3,
      "inputModuleId": 94,
      "inputId": 0,
      "color": "#c9b70e"
    },
    {
      "id": 1073,
      "outputModuleId": 101,
      "outputId": 0,
      "inputModuleId": 94,
      "inputId": 1,
      "color": "#0c8e15"
    },
    {
      "id": 1074,
      "outputModuleId": 89,
      "outputId": 3,
      "inputModuleId": 101,
      "inputId": 4,
      "color": "#c91847"
    },
    {
      "id": 1005,
      "outputModuleId": 89,
      "outputId": 3,
      "inputModuleId": 87,
      "inputId": 0,
      "color": "#0c8e15"
    },
    {
      "id": 1077,
      "outputModuleId": 87,
      "outputId": 2,
      "inputModuleId": 88,
      "inputId": 3,
      "color": "#c91847"
    },
    {
      "id": 1078,
      "outputModuleId": 87,
      "outputId": 0,
      "inputModuleId": 88,
      "inputId": 1,
      "color": "#0986ad"
    },
    {
      "id": 1034,
      "outputModuleId": 88,
      "outputId": 1,
      "inputModuleId": 94,
      "inputId": 3,
      "color": "#0c8e15"
    },
    {
      "id": 1080,
      "outputModuleId": 104,
      "outputId": 0,
      "inputModuleId": 105,
      "inputId": 4,
      "color": "#c91847"
    },
    {
      "id": 1082,
      "outputModuleId": 105,
      "outputId": 1,
      "inputModuleId": 106,
      "inputId": 3,
      "color": "#c9b70e"
    },
    {
      "id": 1086,
      "outputModuleId": 103,
      "outputId": 0,
      "inputModuleId": 105,
      "inputId": 5,
      "color": "#c9b70e"
    },
    {
      "id": 1098,
      "outputModuleId": 105,
      "outputId": 0,
      "inputModuleId": 107,
      "inputId": 4,
      "color": "#0986ad"
    },
    {
      "id": 1114,
      "outputModuleId": 112,
      "outputId": 0,
      "inputModuleId": 108,
      "inputId": 6,
      "color": "#c91847"
    },
    {
      "id": 1115,
      "outputModuleId": 112,
      "outputId": 0,
      "inputModuleId": 108,
      "inputId": 7,
      "color": "#0986ad"
    },
    {
      "id": 1116,
      "outputModuleId": 106,
      "outputId": 0,
      "inputModuleId": 113,
      "inputId": 3,
      "color": "#c9b70e"
    },
    {
      "id": 1117,
      "outputModuleId": 89,
      "outputId": 0,
      "inputModuleId": 113,
      "inputId": 4,
      "color": "#0c8e15"
    },
    {
      "id": 1118,
      "outputModuleId": 113,
      "outputId": 0,
      "inputModuleId": 114,
      "inputId": 6,
      "color": "#c91847"
    },
    {
      "id": 1119,
      "outputModuleId": 113,
      "outputId": 0,
      "inputModuleId": 114,
      "inputId": 7,
      "color": "#0986ad"
    },
    {
      "id": 1125,
      "outputModuleId": 115,
      "outputId": 0,
      "inputModuleId": 116,
      "inputId": 6,
      "color": "#0c8e15"
    },
    {
      "id": 1126,
      "outputModuleId": 115,
      "outputId": 0,
      "inputModuleId": 116,
      "inputId": 7,
      "color": "#c91847"
    },
    {
      "id": 1092,
      "outputModuleId": 108,
      "outputId": 1,
      "inputModuleId": 110,
      "inputId": 2,
      "color": "#0c8e15"
    },
    {
      "id": 1093,
      "outputModuleId": 108,
      "outputId": 0,
      "inputModuleId": 110,
      "inputId": 1,
      "color": "#c91847"
    },
    {
      "id": 1120,
      "outputModuleId": 114,
      "outputId": 0,
      "inputModuleId": 110,
      "inputId": 3,
      "color": "#c9b70e"
    },
    {
      "id": 1121,
      "outputModuleId": 114,
      "outputId": 1,
      "inputModuleId": 110,
      "inputId": 4,
      "color": "#0c8e15"
    },
    {
      "id": 1028,
      "outputModuleId": 4,
      "outputId": 0,
      "inputModuleId": 118,
      "inputId": 2,
      "color": "#0986ad"
    },
    {
      "id": 1032,
      "outputModuleId": 94,
      "outputId": 0,
      "inputModuleId": 118,
      "inputId": 5,
      "color": "#0986ad"
    },
    {
      "id": 1014,
      "outputModuleId": 118,
      "outputId": 1,
      "inputModuleId": 97,
      "inputId": 1,
      "color": "#c9b70e"
    },
    {
      "id": 1013,
      "outputModuleId": 118,
      "outputId": 0,
      "inputModuleId": 97,
      "inputId": 2,
      "color": "#0986ad"
    },
    {
      "id": 1095,
      "outputModuleId": 89,
      "outputId": 0,
      "inputModuleId": 105,
      "inputId": 2,
      "color": "#c9b70e"
    },
    {
      "id": 1135,
      "outputModuleId": 104,
      "outputId": 0,
      "inputModuleId": 105,
      "inputId": 1,
      "color": "#c9b70e"
    },
    {
      "id": 1088,
      "outputModuleId": 110,
      "outputId": 4,
      "inputModuleId": 118,
      "inputId": 8,
      "color": "#c9b70e"
    },
    {
      "id": 1122,
      "outputModuleId": 110,
      "outputId": 5,
      "inputModuleId": 118,
      "inputId": 11,
      "color": "#c91847"
    },
    {
      "id": 1142,
      "outputModuleId": 106,
      "outputId": 0,
      "inputModuleId": 120,
      "inputId": 2,
      "color": "#0986ad"
    },
    {
      "id": 1144,
      "outputModuleId": 107,
      "outputId": 0,
      "inputModuleId": 120,
      "inputId": 3,
      "color": "#0c8e15"
    },
    {
      "id": 1145,
      "outputModuleId": 121,
      "outputId": 0,
      "inputModuleId": 107,
      "inputId": 3,
      "color": "#c91847"
    },
    {
      "id": 1083,
      "outputModuleId": 106,
      "outputId": 0,
      "inputModuleId": 110,
      "inputId": 0,
      "color": "#0c8e15"
    },
    {
      "id": 1147,
      "outputModuleId": 121,
      "outputId": 0,
      "inputModuleId": 112,
      "inputId": 3,
      "color": "#c9b70e"
    },
    {
      "id": 1113,
      "outputModuleId": 106,
      "outputId": 0,
      "inputModuleId": 117,
      "inputId": 0,
      "color": "#c9b70e"
    },
    {
      "id": 1112,
      "outputModuleId": 105,
      "outputId": 0,
      "inputModuleId": 112,
      "inputId": 4,
      "color": "#0986ad"
    },
    {
      "id": 1143,
      "outputModuleId": 120,
      "outputId": 0,
      "inputModuleId": 118,
      "inputId": 17,
      "color": "#c9b70e"
    },
    {
      "id": 1150,
      "outputModuleId": 122,
      "outputId": 0,
      "inputModuleId": 118,
      "inputId": 7,
      "color": "#c9b70e"
    },
    {
      "id": 1069,
      "outputModuleId": 100,
      "outputId": 0,
      "inputModuleId": 118,
      "inputId": 0,
      "color": "#0986ad"
    },
    {
      "id": 1075,
      "outputModuleId": 100,
      "outputId": 0,
      "inputModuleId": 118,
      "inputId": 3,
      "color": "#0986ad"
    },
    {
      "id": 1141,
      "outputModuleId": 119,
      "outputId": 1,
      "inputModuleId": 118,
      "inputId": 9,
      "color": "#c91847"
    },
    {
      "id": 1140,
      "outputModuleId": 100,
      "outputId": 0,
      "inputModuleId": 118,
      "inputId": 12,
      "color": "#0c8e15"
    },
    {
      "id": 1138,
      "outputModuleId": 105,
      "outputId": 0,
      "inputModuleId": 115,
      "inputId": 4,
      "color": "#0986ad"
    },
    {
      "id": 1079,
      "outputModuleId": 86,
      "outputId": 1,
      "inputModuleId": 104,
      "inputId": 4,
      "color": "#0c8e15"
    },
    {
      "id": 1158,
      "outputModuleId": 86,
      "outputId": 2,
      "inputModuleId": 124,
      "inputId": 0,
      "color": "#0986ad"
    },
    {
      "id": 1132,
      "outputModuleId": 116,
      "outputId": 0,
      "inputModuleId": 117,
      "inputId": 1,
      "color": "#c9b70e"
    },
    {
      "id": 1133,
      "outputModuleId": 116,
      "outputId": 1,
      "inputModuleId": 117,
      "inputId": 2,
      "color": "#0c8e15"
    },
    {
      "id": 1169,
      "outputModuleId": 128,
      "outputId": 5,
      "inputModuleId": 118,
      "inputId": 14,
      "color": "#c91847"
    },
    {
      "id": 1131,
      "outputModuleId": 106,
      "outputId": 0,
      "inputModuleId": 128,
      "inputId": 0,
      "color": "#0986ad"
    },
    {
      "id": 1170,
      "outputModuleId": 129,
      "outputId": 0,
      "inputModuleId": 115,
      "inputId": 3,
      "color": "#c9b70e"
    },
    {
      "id": 1163,
      "outputModuleId": 125,
      "outputId": 0,
      "inputModuleId": 117,
      "inputId": 3,
      "color": "#0986ad"
    },
    {
      "id": 1164,
      "outputModuleId": 125,
      "outputId": 1,
      "inputModuleId": 117,
      "inputId": 4,
      "color": "#c9b70e"
    },
    {
      "id": 1162,
      "outputModuleId": 117,
      "outputId": 3,
      "inputModuleId": 125,
      "inputId": 0,
      "color": "#c91847"
    },
    {
      "id": 1176,
      "outputModuleId": 117,
      "outputId": 5,
      "inputModuleId": 128,
      "inputId": 5,
      "color": "#c9b70e"
    },
    {
      "id": 1177,
      "outputModuleId": 123,
      "outputId": 0,
      "inputModuleId": 125,
      "inputId": 2,
      "color": "#0c8e15"
    }
  ]
}