{
  "version": "1.1.3",
  "modules": [
    {
      "id": 1,
      "plugin": "Core",
      "version": "1.1.3",
      "model": "AudioInterface",
      "params": [],
      "leftModuleId": 133,
      "rightModuleId": 148,
      "data": {
        "audio": {
          "driver": 6,
          "deviceName": "Speakers (Realtek High Definition Audio)",
          "offset": 0,
          "maxChannels": 8,
          "sampleRate": 44100,
          "blockSize": 128
        }
      },
      "pos": [
        92,
        0
      ]
    },
    {
      "id": 3,
      "plugin": "Fundamental",
      "version": "1.2.0",
      "model": "VCO",
      "params": [
        {
          "id": 0,
          "value": 1.0
        },
        {
          "id": 1,
          "value": 1.0
        },
        {
          "id": 2,
          "value": -1.35000181
        },
        {
          "id": 3,
          "value": 0.0
        },
        {
          "id": 4,
          "value": 0.0
        },
        {
          "id": 5,
          "value": 0.5
        },
        {
          "id": 6,
          "value": 0.0
        }
      ],
      "pos": [
        8,
        1
      ]
    },
    {
      "id": 4,
      "plugin": "Fundamental",
      "version": "1.2.0",
      "model": "VCF",
      "params": [
        {
          "id": 0,
          "value": 0.554500282
        },
        {
          "id": 1,
          "value": 0.497499913
        },
        {
          "id": 2,
          "value": 0.190500036
        },
        {
          "id": 3,
          "value": -0.285999358
        },
        {
          "id": 4,
          "value": 0.315999895
        }
      ],
      "leftModuleId": 138,
      "rightModuleId": 156,
      "pos": [
        10,
        0
      ]
    },
    {
      "id": 5,
      "plugin": "Core",
      "version": "1.1.3",
      "model": "MIDIToCVInterface",
      "params": [],
      "data": {
        "channels": 1,
        "polyMode": 0,
        "clockDivision": 24,
        "lastPitch": 8192,
        "lastMod": 0,
        "midi": {
          "driver": 4,
          "deviceName": "moi 1",
          "channel": 3
        }
      },
      "pos": [
        28,
        2
      ]
    },
    {
      "id": 132,
      "plugin": "Fundamental",
      "version": "1.2.0",
      "model": "LFO",
      "params": [
        {
          "id": 0,
          "value": 1.0
        },
        {
          "id": 1,
          "value": 1.0
        },
        {
          "id": 2,
          "value": -3.93200064
        },
        {
          "id": 3,
          "value": 0.0
        },
        {
          "id": 4,
          "value": 0.0
        },
        {
          "id": 5,
          "value": 0.5
        },
        {
          "id": 6,
          "value": 0.0
        }
      ],
      "pos": [
        8,
        2
      ]
    },
    {
      "id": 133,
      "plugin": "Bogaudio",
      "version": "1.1.22",
      "model": "Bogaudio-Mix8",
      "params": [
        {
          "id": 0,
          "value": 0.76150012
        },
        {
          "id": 1,
          "value": 0.0
        },
        {
          "id": 2,
          "value": 0.0
        },
        {
          "id": 3,
          "value": 0.544000387
        },
        {
          "id": 4,
          "value": 0.0
        },
        {
          "id": 5,
          "value": 0.0
        },
        {
          "id": 6,
          "value": 0.698500514
        },
        {
          "id": 7,
          "value": 0.0
        },
        {
          "id": 8,
          "value": 0.0
        },
        {
          "id": 9,
          "value": 0.696999431
        },
        {
          "id": 10,
          "value": 0.0
        },
        {
          "id": 11,
          "value": 0.0
        },
        {
          "id": 12,
          "value": 0.561999738
        },
        {
          "id": 13,
          "value": 0.0
        },
        {
          "id": 14,
          "value": 0.0
        },
        {
          "id": 15,
          "value": 0.368500054
        },
        {
          "id": 16,
          "value": 0.0
        },
        {
          "id": 17,
          "value": 0.0
        },
        {
          "id": 18,
          "value": 0.411000043
        },
        {
          "id": 19,
          "value": 1.0
        },
        {
          "id": 20,
          "value": 0.0
        },
        {
          "id": 21,
          "value": 0.755500019
        },
        {
          "id": 22,
          "value": 0.0
        },
        {
          "id": 23,
          "value": 0.0
        },
        {
          "id": 24,
          "value": 0.912999928
        },
        {
          "id": 25,
          "value": 0.0
        }
      ],
      "leftModuleId": 134,
      "rightModuleId": 1,
      "pos": [
        65,
        0
      ]
    },
    {
      "id": 134,
      "plugin": "AudibleInstruments",
      "version": "1.0.0",
      "model": "Links",
      "params": [],
      "leftModuleId": 146,
      "rightModuleId": 133,
      "pos": [
        61,
        0
      ]
    },
    {
      "id": 136,
      "plugin": "Fundamental",
      "version": "1.2.0",
      "model": "SEQ3",
      "params": [
        {
          "id": 0,
          "value": 2.0
        },
        {
          "id": 1,
          "value": 0.0
        },
        {
          "id": 2,
          "value": 0.0
        },
        {
          "id": 3,
          "value": 8.0
        },
        {
          "id": 4,
          "value": 2.65499568
        },
        {
          "id": 5,
          "value": 3.52499938
        },
        {
          "id": 6,
          "value": 1.92000008
        },
        {
          "id": 7,
          "value": 0.0
        },
        {
          "id": 8,
          "value": 0.0
        },
        {
          "id": 9,
          "value": 0.0
        },
        {
          "id": 10,
          "value": 0.0
        },
        {
          "id": 11,
          "value": 0.0
        },
        {
          "id": 12,
          "value": 0.0
        },
        {
          "id": 13,
          "value": 3.85500002
        },
        {
          "id": 14,
          "value": 0.0
        },
        {
          "id": 15,
          "value": 6.57000208
        },
        {
          "id": 16,
          "value": 1.08000016
        },
        {
          "id": 17,
          "value": 0.0
        },
        {
          "id": 18,
          "value": 3.96000028
        },
        {
          "id": 19,
          "value": 0.974999905
        },
        {
          "id": 20,
          "value": 0.0
        },
        {
          "id": 21,
          "value": 0.0
        },
        {
          "id": 22,
          "value": 0.0
        },
        {
          "id": 23,
          "value": 2.71500087
        },
        {
          "id": 24,
          "value": 0.0
        },
        {
          "id": 25,
          "value": 0.0
        },
        {
          "id": 26,
          "value": 0.495000571
        },
        {
          "id": 27,
          "value": 0.0
        },
        {
          "id": 28,
          "value": 0.0
        },
        {
          "id": 29,
          "value": 0.0
        },
        {
          "id": 30,
          "value": 0.0
        },
        {
          "id": 31,
          "value": 0.0
        },
        {
          "id": 32,
          "value": 0.0
        },
        {
          "id": 33,
          "value": 0.0
        },
        {
          "id": 34,
          "value": 0.0
        },
        {
          "id": 35,
          "value": 0.0
        }
      ],
      "data": {
        "running": true,
        "gates": [
          1,
          1,
          1,
          1,
          1,
          1,
          1,
          1
        ]
      },
      "pos": [
        37,
        1
      ]
    },
    {
      "id": 137,
      "plugin": "AudibleInstruments",
      "version": "1.0.0",
      "model": "Elements",
      "params": [
        {
          "id": 0,
          "value": 0.719500244
        },
        {
          "id": 1,
          "value": 1.0
        },
        {
          "id": 2,
          "value": 0.310499877
        },
        {
          "id": 3,
          "value": 0.215999454
        },
        {
          "id": 4,
          "value": -30.0
        },
        {
          "id": 5,
          "value": -2.0
        },
        {
          "id": 6,
          "value": 0.0
        },
        {
          "id": 7,
          "value": 0.5
        },
        {
          "id": 8,
          "value": 0.828999877
        },
        {
          "id": 9,
          "value": 0.0
        },
        {
          "id": 10,
          "value": 0.891999364
        },
        {
          "id": 11,
          "value": 0.81400001
        },
        {
          "id": 12,
          "value": 0.527500093
        },
        {
          "id": 13,
          "value": 0.282999992
        },
        {
          "id": 14,
          "value": 0.355499893
        },
        {
          "id": 15,
          "value": 0.410499811
        },
        {
          "id": 16,
          "value": 1.28100049
        },
        {
          "id": 17,
          "value": 0.0
        },
        {
          "id": 18,
          "value": 0.0
        },
        {
          "id": 19,
          "value": 0.0
        },
        {
          "id": 20,
          "value": 0.0
        },
        {
          "id": 21,
          "value": 0.0
        },
        {
          "id": 22,
          "value": 0.0
        },
        {
          "id": 23,
          "value": 0.0
        },
        {
          "id": 24,
          "value": 0.0
        },
        {
          "id": 25,
          "value": 0.0
        },
        {
          "id": 26,
          "value": 0.0
        },
        {
          "id": 27,
          "value": 0.0
        }
      ],
      "rightModuleId": 140,
      "data": {
        "model": 0
      },
      "pos": [
        37,
        2
      ]
    },
    {
      "id": 138,
      "plugin": "Fundamental",
      "version": "1.2.0",
      "model": "LFO",
      "params": [
        {
          "id": 0,
          "value": 1.0
        },
        {
          "id": 1,
          "value": 1.0
        },
        {
          "id": 2,
          "value": 1.78299868
        },
        {
          "id": 3,
          "value": 0.0
        },
        {
          "id": 4,
          "value": 0.0
        },
        {
          "id": 5,
          "value": 0.5
        },
        {
          "id": 6,
          "value": 0.0
        }
      ],
      "rightModuleId": 4,
      "pos": [
        0,
        0
      ]
    },
    {
      "id": 139,
      "plugin": "AudibleInstruments",
      "version": "1.0.0",
      "model": "Plaits",
      "params": [
        {
          "id": 0,
          "value": 0.0
        },
        {
          "id": 1,
          "value": 0.0
        },
        {
          "id": 2,
          "value": -2.39200068
        },
        {
          "id": 3,
          "value": 0.314499885
        },
        {
          "id": 4,
          "value": 0.0775000751
        },
        {
          "id": 5,
          "value": 0.503499866
        },
        {
          "id": 6,
          "value": 0.0
        },
        {
          "id": 7,
          "value": 0.0
        },
        {
          "id": 8,
          "value": 0.0
        }
      ],
      "leftModuleId": 144,
      "data": {
        "lowCpu": false,
        "model": 14,
        "lpgColor": 0.5,
        "decay": 0.5
      },
      "pos": [
        92,
        1
      ]
    },
    {
      "id": 140,
      "plugin": "AudibleInstruments",
      "version": "1.0.0",
      "model": "Elements",
      "params": [
        {
          "id": 0,
          "value": 0.687999845
        },
        {
          "id": 1,
          "value": 1.0
        },
        {
          "id": 2,
          "value": 0.145500034
        },
        {
          "id": 3,
          "value": 0.967499912
        },
        {
          "id": 4,
          "value": -30.0
        },
        {
          "id": 5,
          "value": -1.43199968
        },
        {
          "id": 6,
          "value": 0.745653391
        },
        {
          "id": 7,
          "value": 0.158393621
        },
        {
          "id": 8,
          "value": 0.708417356
        },
        {
          "id": 9,
          "value": 0.0
        },
        {
          "id": 10,
          "value": 0.948999941
        },
        {
          "id": 11,
          "value": 0.277500153
        },
        {
          "id": 12,
          "value": 0.45900014
        },
        {
          "id": 13,
          "value": 0.362500161
        },
        {
          "id": 14,
          "value": 0.661417305
        },
        {
          "id": 15,
          "value": 0.193500042
        },
        {
          "id": 16,
          "value": 0.191000119
        },
        {
          "id": 17,
          "value": -0.0277748983
        },
        {
          "id": 18,
          "value": 0.644334674
        },
        {
          "id": 19,
          "value": -0.0327844322
        },
        {
          "id": 20,
          "value": 0.431101203
        },
        {
          "id": 21,
          "value": -0.0128535535
        },
        {
          "id": 22,
          "value": -0.153163433
        },
        {
          "id": 23,
          "value": 0.00500012375
        },
        {
          "id": 24,
          "value": 0.523296833
        },
        {
          "id": 25,
          "value": -0.632822752
        },
        {
          "id": 26,
          "value": -1.33441973
        },
        {
          "id": 27,
          "value": 0.0
        }
      ],
      "leftModuleId": 137,
      "data": {
        "model": 2
      },
      "pos": [
        71,
        2
      ]
    },
    {
      "id": 142,
      "plugin": "Core",
      "version": "1.1.3",
      "model": "MIDIToCVInterface",
      "params": [],
      "leftModuleId": 159,
      "rightModuleId": 146,
      "data": {
        "channels": 1,
        "polyMode": 0,
        "clockDivision": 24,
        "lastPitch": 8192,
        "lastMod": 0,
        "midi": {
          "driver": 4,
          "deviceName": "moi 1",
          "channel": 0
        }
      },
      "pos": [
        45,
        0
      ]
    },
    {
      "id": 144,
      "plugin": "AudibleInstruments",
      "version": "1.0.0",
      "model": "Plaits",
      "params": [
        {
          "id": 0,
          "value": 0.0
        },
        {
          "id": 1,
          "value": 0.0
        },
        {
          "id": 2,
          "value": -1.94399881
        },
        {
          "id": 3,
          "value": 0.216999888
        },
        {
          "id": 4,
          "value": 0.451499939
        },
        {
          "id": 5,
          "value": 0.470499992
        },
        {
          "id": 6,
          "value": 0.0
        },
        {
          "id": 7,
          "value": 0.0
        },
        {
          "id": 8,
          "value": 0.0
        }
      ],
      "leftModuleId": 145,
      "rightModuleId": 139,
      "data": {
        "lowCpu": false,
        "model": 3,
        "lpgColor": 0.5,
        "decay": 0.5
      },
      "pos": [
        80,
        1
      ]
    },
    {
      "id": 145,
      "plugin": "AudibleInstruments",
      "version": "1.0.0",
      "model": "Plaits",
      "params": [
        {
          "id": 0,
          "value": 0.0
        },
        {
          "id": 1,
          "value": 0.0
        },
        {
          "id": 2,
          "value": -3.38799953
        },
        {
          "id": 3,
          "value": 0.970000029
        },
        {
          "id": 4,
          "value": 1.0
        },
        {
          "id": 5,
          "value": 0.477999985
        },
        {
          "id": 6,
          "value": 0.0
        },
        {
          "id": 7,
          "value": 0.0
        },
        {
          "id": 8,
          "value": 0.0
        }
      ],
      "rightModuleId": 144,
      "data": {
        "lowCpu": false,
        "model": 5,
        "lpgColor": 0.5,
        "decay": 0.5
      },
      "pos": [
        68,
        1
      ]
    },
    {
      "id": 146,
      "plugin": "Fundamental",
      "version": "1.2.0",
      "model": "ADSR",
      "params": [
        {
          "id": 0,
          "value": 0.692000508
        },
        {
          "id": 1,
          "value": 0.5
        },
        {
          "id": 2,
          "value": 1.0
        },
        {
          "id": 3,
          "value": 0.756499946
        }
      ],
      "leftModuleId": 142,
      "rightModuleId": 134,
      "pos": [
        53,
        0
      ]
    },
    {
      "id": 148,
      "plugin": "AudibleInstruments",
      "version": "1.0.0",
      "model": "Links",
      "params": [],
      "leftModuleId": 1,
      "pos": [
        102,
        0
      ]
    },
    {
      "id": 151,
      "plugin": "Fundamental",
      "version": "1.2.0",
      "model": "LFO",
      "params": [
        {
          "id": 0,
          "value": 1.0
        },
        {
          "id": 1,
          "value": 1.0
        },
        {
          "id": 2,
          "value": 2.34645748
        },
        {
          "id": 3,
          "value": 0.0
        },
        {
          "id": 4,
          "value": 0.0
        },
        {
          "id": 5,
          "value": 0.5
        },
        {
          "id": 6,
          "value": 0.0
        }
      ],
      "pos": [
        8,
        3
      ]
    },
    {
      "id": 152,
      "plugin": "Fundamental",
      "version": "1.2.0",
      "model": "ADSR",
      "params": [
        {
          "id": 0,
          "value": 0.0
        },
        {
          "id": 1,
          "value": 0.469500512
        },
        {
          "id": 2,
          "value": 0.144000053
        },
        {
          "id": 3,
          "value": 0.0
        }
      ],
      "pos": [
        28,
        3
      ]
    },
    {
      "id": 155,
      "plugin": "AudibleInstruments",
      "version": "1.0.0",
      "model": "Elements",
      "params": [
        {
          "id": 0,
          "value": 0.0
        },
        {
          "id": 1,
          "value": 0.0
        },
        {
          "id": 2,
          "value": 0.293499798
        },
        {
          "id": 3,
          "value": 1.0
        },
        {
          "id": 4,
          "value": -0.330010116
        },
        {
          "id": 5,
          "value": -0.0700001344
        },
        {
          "id": 6,
          "value": -0.0111539345
        },
        {
          "id": 7,
          "value": 0.341999978
        },
        {
          "id": 8,
          "value": 0.247499973
        },
        {
          "id": 9,
          "value": 0.167999938
        },
        {
          "id": 10,
          "value": 1.0
        },
        {
          "id": 11,
          "value": 0.0939999893
        },
        {
          "id": 12,
          "value": 1.0
        },
        {
          "id": 13,
          "value": 0.840999961
        },
        {
          "id": 14,
          "value": 0.828000009
        },
        {
          "id": 15,
          "value": 0.0
        },
        {
          "id": 16,
          "value": 0.997999847
        },
        {
          "id": 17,
          "value": 0.041616559
        },
        {
          "id": 18,
          "value": 0.718820453
        },
        {
          "id": 19,
          "value": 0.0140941963
        },
        {
          "id": 20,
          "value": -0.522694826
        },
        {
          "id": 21,
          "value": -0.0010000011
        },
        {
          "id": 22,
          "value": -0.700000226
        },
        {
          "id": 23,
          "value": 0.004999978
        },
        {
          "id": 24,
          "value": -0.049521327
        },
        {
          "id": 25,
          "value": 0.895282388
        },
        {
          "id": 26,
          "value": 0.0768002346
        },
        {
          "id": 27,
          "value": 0.0
        }
      ],
      "data": {
        "model": 0
      },
      "pos": [
        37,
        3
      ]
    },
    {
      "id": 156,
      "plugin": "Core",
      "version": "1.1.3",
      "model": "MIDI-Map",
      "params": [],
      "leftModuleId": 4,
      "data": {
        "maps": [
          {
            "cc": 41,
            "moduleId": 140,
            "paramId": 14
          },
          {
            "cc": 44,
            "moduleId": 151,
            "paramId": 2
          },
          {
            "cc": 47,
            "moduleId": 158,
            "paramId": 12
          },
          {
            "cc": -1,
            "moduleId": -1,
            "paramId": 0
          }
        ],
        "midi": {
          "driver": 4,
          "deviceName": "moi 1",
          "channel": -1
        }
      },
      "pos": [
        18,
        0
      ]
    },
    {
      "id": 157,
      "plugin": "Core",
      "version": "1.1.3",
      "model": "MIDIToCVInterface",
      "params": [],
      "rightModuleId": 159,
      "data": {
        "channels": 1,
        "polyMode": 0,
        "clockDivision": 24,
        "lastPitch": 8192,
        "lastMod": 0,
        "midi": {
          "driver": 4,
          "deviceName": "moi 1",
          "channel": 2
        }
      },
      "pos": [
        29,
        0
      ]
    },
    {
      "id": 159,
      "plugin": "Fundamental",
      "version": "1.2.0",
      "model": "ADSR",
      "params": [
        {
          "id": 0,
          "value": 0.632000625
        },
        {
          "id": 1,
          "value": 0.5
        },
        {
          "id": 2,
          "value": 1.0
        },
        {
          "id": 3,
          "value": 0.675499916
        }
      ],
      "leftModuleId": 157,
      "rightModuleId": 142,
      "pos": [
        37,
        0
      ]
    }
  ],
  "cables": [
    {
      "id": 1178,
      "outputModuleId": 5,
      "outputId": 0,
      "inputModuleId": 3,
      "inputId": 0,
      "color": "#c91847"
    },
    {
      "id": 1213,
      "outputModuleId": 132,
      "outputId": 0,
      "inputModuleId": 137,
      "inputId": 8,
      "color": "#c91847"
    },
    {
      "id": 1215,
      "outputModuleId": 136,
      "outputId": 2,
      "inputModuleId": 137,
      "inputId": 12,
      "color": "#c9b70e"
    },
    {
      "id": 1218,
      "outputModuleId": 136,
      "outputId": 3,
      "inputModuleId": 139,
      "inputId": 7,
      "color": "#0986ad"
    },
    {
      "id": 1220,
      "outputModuleId": 139,
      "outputId": 0,
      "inputModuleId": 133,
      "inputId": 23,
      "color": "#0c8e15"
    },
    {
      "id": 1225,
      "outputModuleId": 136,
      "outputId": 2,
      "inputModuleId": 139,
      "inputId": 4,
      "color": "#0986ad"
    },
    {
      "id": 1232,
      "outputModuleId": 140,
      "outputId": 0,
      "inputModuleId": 134,
      "inputId": 1,
      "color": "#c91847"
    },
    {
      "id": 1233,
      "outputModuleId": 140,
      "outputId": 1,
      "inputModuleId": 134,
      "inputId": 2,
      "color": "#0986ad"
    },
    {
      "id": 1234,
      "outputModuleId": 134,
      "outputId": 4,
      "inputModuleId": 133,
      "inputId": 8,
      "color": "#c9b70e"
    },
    {
      "id": 1212,
      "outputModuleId": 5,
      "outputId": 1,
      "inputModuleId": 137,
      "inputId": 2,
      "color": "#0c8e15"
    },
    {
      "id": 1251,
      "outputModuleId": 132,
      "outputId": 0,
      "inputModuleId": 133,
      "inputId": 21,
      "color": "#0986ad"
    },
    {
      "id": 1257,
      "outputModuleId": 145,
      "outputId": 0,
      "inputModuleId": 133,
      "inputId": 11,
      "color": "#c91847"
    },
    {
      "id": 1256,
      "outputModuleId": 3,
      "outputId": 0,
      "inputModuleId": 145,
      "inputId": 5,
      "color": "#0c8e15"
    },
    {
      "id": 1259,
      "outputModuleId": 138,
      "outputId": 0,
      "inputModuleId": 145,
      "inputId": 4,
      "color": "#c9b70e"
    },
    {
      "id": 1266,
      "outputModuleId": 3,
      "outputId": 0,
      "inputModuleId": 144,
      "inputId": 5,
      "color": "#0986ad"
    },
    {
      "id": 1265,
      "outputModuleId": 144,
      "outputId": 0,
      "inputModuleId": 4,
      "inputId": 3,
      "color": "#c91847"
    },
    {
      "id": 1279,
      "outputModuleId": 4,
      "outputId": 0,
      "inputModuleId": 133,
      "inputId": 14,
      "color": "#0c8e15"
    },
    {
      "id": 1280,
      "outputModuleId": 132,
      "outputId": 1,
      "inputModuleId": 4,
      "inputId": 0,
      "color": "#c91847"
    },
    {
      "id": 1205,
      "outputModuleId": 137,
      "outputId": 1,
      "inputModuleId": 134,
      "inputId": 4,
      "color": "#0c8e15"
    },
    {
      "id": 1206,
      "outputModuleId": 137,
      "outputId": 0,
      "inputModuleId": 134,
      "inputId": 3,
      "color": "#c91847"
    },
    {
      "id": 1207,
      "outputModuleId": 134,
      "outputId": 5,
      "inputModuleId": 133,
      "inputId": 5,
      "color": "#0986ad"
    },
    {
      "id": 1252,
      "outputModuleId": 142,
      "outputId": 1,
      "inputModuleId": 146,
      "inputId": 4,
      "color": "#c9b70e"
    },
    {
      "id": 1180,
      "outputModuleId": 133,
      "outputId": 0,
      "inputModuleId": 1,
      "inputId": 0,
      "color": "#0986ad"
    },
    {
      "id": 1181,
      "outputModuleId": 133,
      "outputId": 1,
      "inputModuleId": 1,
      "inputId": 1,
      "color": "#c9b70e"
    },
    {
      "id": 1277,
      "outputModuleId": 132,
      "outputId": 0,
      "inputModuleId": 144,
      "inputId": 1,
      "color": "#0986ad"
    },
    {
      "id": 1273,
      "outputModuleId": 138,
      "outputId": 1,
      "inputModuleId": 144,
      "inputId": 6,
      "color": "#c91847"
    },
    {
      "id": 1278,
      "outputModuleId": 132,
      "outputId": 0,
      "inputModuleId": 144,
      "inputId": 3,
      "color": "#c9b70e"
    },
    {
      "id": 1250,
      "outputModuleId": 132,
      "outputId": 0,
      "inputModuleId": 148,
      "inputId": 0,
      "color": "#c91847"
    },
    {
      "id": 1241,
      "outputModuleId": 132,
      "outputId": 0,
      "inputModuleId": 140,
      "inputId": 10,
      "color": "#c9b70e"
    },
    {
      "id": 1275,
      "outputModuleId": 132,
      "outputId": 2,
      "inputModuleId": 133,
      "inputId": 9,
      "color": "#c9b70e"
    },
    {
      "id": 1281,
      "outputModuleId": 146,
      "outputId": 0,
      "inputModuleId": 133,
      "inputId": 6,
      "color": "#0986ad"
    },
    {
      "id": 1301,
      "outputModuleId": 132,
      "outputId": 0,
      "inputModuleId": 140,
      "inputId": 8,
      "color": "#0986ad"
    },
    {
      "id": 1318,
      "outputModuleId": 152,
      "outputId": 0,
      "inputModuleId": 140,
      "inputId": 2,
      "color": "#0986ad"
    },
    {
      "id": 1311,
      "outputModuleId": 151,
      "outputId": 0,
      "inputModuleId": 152,
      "inputId": 4,
      "color": "#c91847"
    },
    {
      "id": 1362,
      "outputModuleId": 148,
      "outputId": 3,
      "inputModuleId": 133,
      "inputId": 17,
      "color": "#0986ad"
    },
    {
      "id": 1370,
      "outputModuleId": 152,
      "outputId": 0,
      "inputModuleId": 140,
      "inputId": 12,
      "color": "#c9b70e"
    },
    {
      "id": 1371,
      "outputModuleId": 157,
      "outputId": 1,
      "inputModuleId": 159,
      "inputId": 4,
      "color": "#0c8e15"
    },
    {
      "id": 1375,
      "outputModuleId": 159,
      "outputId": 0,
      "inputModuleId": 133,
      "inputId": 15,
      "color": "#c91847"
    },
    {
      "id": 1361,
      "outputModuleId": 155,
      "outputId": 0,
      "inputModuleId": 148,
      "inputId": 1,
      "color": "#c91847"
    },
    {
      "id": 1360,
      "outputModuleId": 155,
      "outputId": 1,
      "inputModuleId": 148,
      "inputId": 2,
      "color": "#0c8e15"
    },
    {
      "id": 1372,
      "outputModuleId": 152,
      "outputId": 0,
      "inputModuleId": 155,
      "inputId": 2,
      "color": "#c91847"
    },
    {
      "id": 1381,
      "outputModuleId": 132,
      "outputId": 0,
      "inputModuleId": 155,
      "inputId": 7,
      "color": "#c9b70e"
    },
    {
      "id": 1359,
      "outputModuleId": 146,
      "outputId": 0,
      "inputModuleId": 133,
      "inputId": 13,
      "color": "#c91847"
    },
    {
      "id": 1380,
      "outputModuleId": 132,
      "outputId": 0,
      "inputModuleId": 155,
      "inputId": 6,
      "color": "#0986ad"
    },
    {
      "id": 1385,
      "outputModuleId": 151,
      "outputId": 1,
      "inputModuleId": 155,
      "inputId": 13,
      "color": "#0986ad"
    },
    {
      "id": 1389,
      "outputModuleId": 151,
      "outputId": 0,
      "inputModuleId": 155,
      "inputId": 3,
      "color": "#0986ad"
    },
    {
      "id": 1384,
      "outputModuleId": 151,
      "outputId": 0,
      "inputModuleId": 155,
      "inputId": 11,
      "color": "#c9b70e"
    },
    {
      "id": 1391,
      "outputModuleId": 138,
      "outputId": 0,
      "inputModuleId": 155,
      "inputId": 12,
      "color": "#c91847"
    },
    {
      "id": 1334,
      "outputModuleId": 152,
      "outputId": 0,
      "inputModuleId": 155,
      "inputId": 10,
      "color": "#c91847"
    }
  ]
}