{
  "version": "1.1.3",
  "modules": [
    {
      "id": 1,
      "plugin": "Core",
      "version": "1.1.3",
      "model": "AudioInterface",
      "params": [],
      "leftModuleId": 152,
      "data": {
        "audio": {
          "driver": 6,
          "deviceName": "Speakers (Realtek High Definition Audio)",
          "offset": 0,
          "maxChannels": 8,
          "sampleRate": 44100,
          "blockSize": 256
        }
      },
      "pos": [
        135,
        0
      ]
    },
    {
      "id": 5,
      "plugin": "Core",
      "version": "1.1.3",
      "model": "MIDIToCVInterface",
      "params": [],
      "data": {
        "channels": 1,
        "polyMode": 0,
        "clockDivision": 24,
        "lastPitch": 8192,
        "lastMod": 0,
        "midi": {
          "driver": -11,
          "deviceName": "QWERTY keyboard (US)",
          "channel": -1
        }
      },
      "pos": [
        0,
        0
      ]
    },
    {
      "id": 137,
      "plugin": "Bogaudio",
      "version": "1.1.22",
      "model": "Bogaudio-Mix8",
      "params": [
        {
          "id": 0,
          "value": 0.66899997
        },
        {
          "id": 1,
          "value": 0.0
        },
        {
          "id": 2,
          "value": 0.0
        },
        {
          "id": 3,
          "value": 0.773999989
        },
        {
          "id": 4,
          "value": 0.0
        },
        {
          "id": 5,
          "value": 0.0
        },
        {
          "id": 6,
          "value": 0.0
        },
        {
          "id": 7,
          "value": 0.0
        },
        {
          "id": 8,
          "value": 0.0
        },
        {
          "id": 9,
          "value": 0.0
        },
        {
          "id": 10,
          "value": 0.0
        },
        {
          "id": 11,
          "value": 0.0380001813
        },
        {
          "id": 12,
          "value": 0.0
        },
        {
          "id": 13,
          "value": 0.0
        },
        {
          "id": 14,
          "value": 0.0
        },
        {
          "id": 15,
          "value": 0.909090936
        },
        {
          "id": 16,
          "value": 0.0
        },
        {
          "id": 17,
          "value": 0.0
        },
        {
          "id": 18,
          "value": 0.909090936
        },
        {
          "id": 19,
          "value": 0.0
        },
        {
          "id": 20,
          "value": 0.0
        },
        {
          "id": 21,
          "value": 0.909090936
        },
        {
          "id": 22,
          "value": 0.0
        },
        {
          "id": 23,
          "value": 0.0
        },
        {
          "id": 24,
          "value": 0.909090936
        },
        {
          "id": 25,
          "value": 0.0
        }
      ],
      "rightModuleId": 152,
      "pos": [
        104,
        0
      ]
    },
    {
      "id": 138,
      "plugin": "Fundamental",
      "version": "1.2.1",
      "model": "SEQ3",
      "params": [
        {
          "id": 0,
          "value": 1.99999881
        },
        {
          "id": 1,
          "value": 0.0
        },
        {
          "id": 2,
          "value": 0.0
        },
        {
          "id": 3,
          "value": 8.0
        },
        {
          "id": 4,
          "value": 1.83000016
        },
        {
          "id": 5,
          "value": 5.83500099
        },
        {
          "id": 6,
          "value": 0.0
        },
        {
          "id": 7,
          "value": 2.0400002
        },
        {
          "id": 8,
          "value": 0.0
        },
        {
          "id": 9,
          "value": 3.97500014
        },
        {
          "id": 10,
          "value": 3.13499999
        },
        {
          "id": 11,
          "value": 0.0
        },
        {
          "id": 12,
          "value": 2.44500089
        },
        {
          "id": 13,
          "value": 0.165000007
        },
        {
          "id": 14,
          "value": 4.09499884
        },
        {
          "id": 15,
          "value": 2.03915389e-15
        },
        {
          "id": 16,
          "value": 0.795000374
        },
        {
          "id": 17,
          "value": 0.0
        },
        {
          "id": 18,
          "value": 0.0
        },
        {
          "id": 19,
          "value": 2.38499975
        },
        {
          "id": 20,
          "value": 0.0
        },
        {
          "id": 21,
          "value": 1.54499984
        },
        {
          "id": 22,
          "value": 0.67500031
        },
        {
          "id": 23,
          "value": 0.0
        },
        {
          "id": 24,
          "value": 1.94999933
        },
        {
          "id": 25,
          "value": 0.870000124
        },
        {
          "id": 26,
          "value": 3.31500053
        },
        {
          "id": 27,
          "value": 0.359999955
        },
        {
          "id": 28,
          "value": 0.0
        },
        {
          "id": 29,
          "value": 0.0
        },
        {
          "id": 30,
          "value": 0.0
        },
        {
          "id": 31,
          "value": 0.0
        },
        {
          "id": 32,
          "value": 0.0
        },
        {
          "id": 33,
          "value": 0.0
        },
        {
          "id": 34,
          "value": 0.0
        },
        {
          "id": 35,
          "value": 0.0
        }
      ],
      "data": {
        "running": true,
        "gates": [
          1,
          1,
          1,
          1,
          1,
          1,
          1,
          1
        ]
      },
      "pos": [
        18,
        1
      ]
    },
    {
      "id": 144,
      "plugin": "Fundamental",
      "version": "1.2.1",
      "model": "VCO",
      "params": [
        {
          "id": 0,
          "value": 1.0
        },
        {
          "id": 1,
          "value": 1.0
        },
        {
          "id": 2,
          "value": -54.0
        },
        {
          "id": 3,
          "value": -0.501999915
        },
        {
          "id": 4,
          "value": 0.0
        },
        {
          "id": 5,
          "value": 0.5
        },
        {
          "id": 6,
          "value": 0.64200002
        }
      ],
      "rightModuleId": 147,
      "pos": [
        23,
        0
      ]
    },
    {
      "id": 146,
      "plugin": "AudibleInstruments",
      "version": "1.0.0",
      "model": "Elements",
      "params": [
        {
          "id": 0,
          "value": 0.637000322
        },
        {
          "id": 1,
          "value": 0.838713884
        },
        {
          "id": 2,
          "value": 0.353419483
        },
        {
          "id": 3,
          "value": 1.0
        },
        {
          "id": 4,
          "value": -30.0
        },
        {
          "id": 5,
          "value": -0.0679998845
        },
        {
          "id": 6,
          "value": 0.450369358
        },
        {
          "id": 7,
          "value": 0.326999784
        },
        {
          "id": 8,
          "value": 0.146499932
        },
        {
          "id": 9,
          "value": 0.0
        },
        {
          "id": 10,
          "value": 0.0
        },
        {
          "id": 11,
          "value": 0.0
        },
        {
          "id": 12,
          "value": 0.508500099
        },
        {
          "id": 13,
          "value": 0.0
        },
        {
          "id": 14,
          "value": 0.127500013
        },
        {
          "id": 15,
          "value": 0.961960495
        },
        {
          "id": 16,
          "value": 0.719999969
        },
        {
          "id": 17,
          "value": -0.192791343
        },
        {
          "id": 18,
          "value": -0.039999783
        },
        {
          "id": 19,
          "value": -0.0109999198
        },
        {
          "id": 20,
          "value": -0.0503076613
        },
        {
          "id": 21,
          "value": 0.717104554
        },
        {
          "id": 22,
          "value": 1.0
        },
        {
          "id": 23,
          "value": -0.411701083
        },
        {
          "id": 24,
          "value": 0.523777604
        },
        {
          "id": 25,
          "value": 0.083381176
        },
        {
          "id": 26,
          "value": -0.151999623
        },
        {
          "id": 27,
          "value": 0.0
        }
      ],
      "leftModuleId": 147,
      "rightModuleId": 148,
      "data": {
        "model": 0
      },
      "pos": [
        43,
        0
      ]
    },
    {
      "id": 147,
      "plugin": "Fundamental",
      "version": "1.2.1",
      "model": "LFO",
      "params": [
        {
          "id": 0,
          "value": 1.0
        },
        {
          "id": 1,
          "value": 1.0
        },
        {
          "id": 2,
          "value": -1.92500091
        },
        {
          "id": 3,
          "value": 0.0
        },
        {
          "id": 4,
          "value": 0.0
        },
        {
          "id": 5,
          "value": 0.5
        },
        {
          "id": 6,
          "value": 0.0
        }
      ],
      "leftModuleId": 144,
      "rightModuleId": 146,
      "pos": [
        33,
        0
      ]
    },
    {
      "id": 148,
      "plugin": "ImpromptuModular",
      "version": "1.1.1",
      "model": "Clocked",
      "params": [
        {
          "id": 0,
          "value": 82.0
        },
        {
          "id": 1,
          "value": -5.0
        },
        {
          "id": 2,
          "value": 5.0
        },
        {
          "id": 3,
          "value": 15.0
        },
        {
          "id": 4,
          "value": 0.0
        },
        {
          "id": 5,
          "value": -0.329999655
        },
        {
          "id": 6,
          "value": -0.456000209
        },
        {
          "id": 7,
          "value": -0.00399994152
        },
        {
          "id": 8,
          "value": 0.5
        },
        {
          "id": 9,
          "value": 0.648499966
        },
        {
          "id": 10,
          "value": 0.644000292
        },
        {
          "id": 11,
          "value": 0.5
        },
        {
          "id": 12,
          "value": 0.0
        },
        {
          "id": 13,
          "value": 0.0
        },
        {
          "id": 14,
          "value": 0.0
        },
        {
          "id": 15,
          "value": 0.0
        },
        {
          "id": 16,
          "value": 0.0
        },
        {
          "id": 17,
          "value": 0.0
        },
        {
          "id": 18,
          "value": 0.0
        },
        {
          "id": 19,
          "value": 0.0
        }
      ],
      "leftModuleId": 146,
      "data": {
        "panelTheme": 0,
        "running": true,
        "displayDelayNoteMode": true,
        "bpmDetectionMode": true,
        "emitResetOnStopRun": false,
        "ppqn": 4,
        "resetClockOutputsHigh": true
      },
      "pos": [
        77,
        0
      ]
    },
    {
      "id": 152,
      "plugin": "AudibleInstruments",
      "version": "1.0.0",
      "model": "Links",
      "params": [],
      "leftModuleId": 137,
      "rightModuleId": 1,
      "pos": [
        131,
        0
      ]
    },
    {
      "id": 169,
      "plugin": "AudibleInstruments",
      "version": "1.0.0",
      "model": "Elements",
      "params": [
        {
          "id": 0,
          "value": 0.40899986
        },
        {
          "id": 1,
          "value": 0.194999993
        },
        {
          "id": 2,
          "value": 0.57250011
        },
        {
          "id": 3,
          "value": 0.793500066
        },
        {
          "id": 4,
          "value": -30.0
        },
        {
          "id": 5,
          "value": -0.408000022
        },
        {
          "id": 6,
          "value": 0.0
        },
        {
          "id": 7,
          "value": 0.475499988
        },
        {
          "id": 8,
          "value": 0.909999788
        },
        {
          "id": 9,
          "value": 0.0
        },
        {
          "id": 10,
          "value": 0.861000061
        },
        {
          "id": 11,
          "value": 0.902999997
        },
        {
          "id": 12,
          "value": 0.0625000149
        },
        {
          "id": 13,
          "value": 0.361500025
        },
        {
          "id": 14,
          "value": 0.494999737
        },
        {
          "id": 15,
          "value": 0.57950002
        },
        {
          "id": 16,
          "value": 1.06399989
        },
        {
          "id": 17,
          "value": 1.0
        },
        {
          "id": 18,
          "value": -1.0
        },
        {
          "id": 19,
          "value": 0.000999967568
        },
        {
          "id": 20,
          "value": 0.450000107
        },
        {
          "id": 21,
          "value": 0.313000113
        },
        {
          "id": 22,
          "value": -0.384000033
        },
        {
          "id": 23,
          "value": 0.378000021
        },
        {
          "id": 24,
          "value": -1.0
        },
        {
          "id": 25,
          "value": 0.0
        },
        {
          "id": 26,
          "value": 0.0
        },
        {
          "id": 27,
          "value": 0.0
        }
      ],
      "rightModuleId": 170,
      "data": {
        "model": 2
      },
      "pos": [
        43,
        1
      ]
    },
    {
      "id": 170,
      "plugin": "ImpromptuModular",
      "version": "1.1.1",
      "model": "Clocked",
      "params": [
        {
          "id": 0,
          "value": 84.0
        },
        {
          "id": 1,
          "value": -0.0
        },
        {
          "id": 2,
          "value": 0.0
        },
        {
          "id": 3,
          "value": 0.0
        },
        {
          "id": 4,
          "value": 0.0
        },
        {
          "id": 5,
          "value": 0.423000425
        },
        {
          "id": 6,
          "value": 0.360999852
        },
        {
          "id": 7,
          "value": 0.131000087
        },
        {
          "id": 8,
          "value": 0.5
        },
        {
          "id": 9,
          "value": 0.39199993
        },
        {
          "id": 10,
          "value": 0.879499912
        },
        {
          "id": 11,
          "value": 0.863000154
        },
        {
          "id": 12,
          "value": 0.0
        },
        {
          "id": 13,
          "value": 0.0
        },
        {
          "id": 14,
          "value": 0.0
        },
        {
          "id": 15,
          "value": 0.0
        },
        {
          "id": 16,
          "value": 0.0
        },
        {
          "id": 17,
          "value": 0.0
        },
        {
          "id": 18,
          "value": 0.0
        },
        {
          "id": 19,
          "value": 0.0
        }
      ],
      "leftModuleId": 169,
      "rightModuleId": 172,
      "data": {
        "panelTheme": 0,
        "running": true,
        "displayDelayNoteMode": true,
        "bpmDetectionMode": false,
        "emitResetOnStopRun": false,
        "ppqn": 24,
        "resetClockOutputsHigh": true
      },
      "pos": [
        77,
        1
      ]
    },
    {
      "id": 172,
      "plugin": "Fundamental",
      "version": "1.2.1",
      "model": "SEQ3",
      "params": [
        {
          "id": 0,
          "value": 1.99999738
        },
        {
          "id": 1,
          "value": 0.0
        },
        {
          "id": 2,
          "value": 0.0
        },
        {
          "id": 3,
          "value": 8.0
        },
        {
          "id": 4,
          "value": 3.18000007
        },
        {
          "id": 5,
          "value": 0.0
        },
        {
          "id": 6,
          "value": 8.56499958
        },
        {
          "id": 7,
          "value": 3.02999949
        },
        {
          "id": 8,
          "value": 3.64500046
        },
        {
          "id": 9,
          "value": 0.0
        },
        {
          "id": 10,
          "value": 4.74000025
        },
        {
          "id": 11,
          "value": 0.0
        },
        {
          "id": 12,
          "value": 6.13500118
        },
        {
          "id": 13,
          "value": 0.0
        },
        {
          "id": 14,
          "value": 5.13000011
        },
        {
          "id": 15,
          "value": 0.0
        },
        {
          "id": 16,
          "value": 0.0
        },
        {
          "id": 17,
          "value": 0.0
        },
        {
          "id": 18,
          "value": 7.51500034
        },
        {
          "id": 19,
          "value": 0.0
        },
        {
          "id": 20,
          "value": 0.0
        },
        {
          "id": 21,
          "value": 0.0
        },
        {
          "id": 22,
          "value": 2.33999777
        },
        {
          "id": 23,
          "value": 0.0
        },
        {
          "id": 24,
          "value": 1.06500018
        },
        {
          "id": 25,
          "value": 4.90499973
        },
        {
          "id": 26,
          "value": 3.72000122
        },
        {
          "id": 27,
          "value": 0.0
        },
        {
          "id": 28,
          "value": 0.0
        },
        {
          "id": 29,
          "value": 0.0
        },
        {
          "id": 30,
          "value": 0.0
        },
        {
          "id": 31,
          "value": 0.0
        },
        {
          "id": 32,
          "value": 0.0
        },
        {
          "id": 33,
          "value": 0.0
        },
        {
          "id": 34,
          "value": 0.0
        },
        {
          "id": 35,
          "value": 0.0
        }
      ],
      "leftModuleId": 170,
      "data": {
        "running": true,
        "gates": [
          1,
          1,
          1,
          1,
          1,
          1,
          1,
          1
        ]
      },
      "pos": [
        97,
        1
      ]
    }
  ],
  "cables": [
    {
      "id": 1211,
      "outputModuleId": 137,
      "outputId": 1,
      "inputModuleId": 1,
      "inputId": 1,
      "color": "#0986ad"
    },
    {
      "id": 1212,
      "outputModuleId": 137,
      "outputId": 0,
      "inputModuleId": 1,
      "inputId": 0,
      "color": "#c9b70e"
    },
    {
      "id": 1298,
      "outputModuleId": 147,
      "outputId": 0,
      "inputModuleId": 144,
      "inputId": 3,
      "color": "#c91847"
    },
    {
      "id": 1302,
      "outputModuleId": 147,
      "outputId": 0,
      "inputModuleId": 146,
      "inputId": 7,
      "color": "#c91847"
    },
    {
      "id": 1307,
      "outputModuleId": 147,
      "outputId": 0,
      "inputModuleId": 146,
      "inputId": 8,
      "color": "#0986ad"
    },
    {
      "id": 1411,
      "outputModuleId": 169,
      "outputId": 1,
      "inputModuleId": 152,
      "inputId": 3,
      "color": "#0986ad"
    },
    {
      "id": 1412,
      "outputModuleId": 169,
      "outputId": 0,
      "inputModuleId": 152,
      "inputId": 4,
      "color": "#c9b70e"
    },
    {
      "id": 1410,
      "outputModuleId": 170,
      "outputId": 1,
      "inputModuleId": 169,
      "inputId": 2,
      "color": "#c91847"
    },
    {
      "id": 1417,
      "outputModuleId": 172,
      "outputId": 1,
      "inputModuleId": 169,
      "inputId": 10,
      "color": "#0986ad"
    },
    {
      "id": 1418,
      "outputModuleId": 172,
      "outputId": 1,
      "inputModuleId": 169,
      "inputId": 6,
      "color": "#0986ad"
    },
    {
      "id": 1423,
      "outputModuleId": 172,
      "outputId": 1,
      "inputModuleId": 169,
      "inputId": 8,
      "color": "#c9b70e"
    },
    {
      "id": 1448,
      "outputModuleId": 146,
      "outputId": 1,
      "inputModuleId": 152,
      "inputId": 2,
      "color": "#c91847"
    },
    {
      "id": 1449,
      "outputModuleId": 146,
      "outputId": 0,
      "inputModuleId": 152,
      "inputId": 1,
      "color": "#0986ad"
    },
    {
      "id": 1450,
      "outputModuleId": 147,
      "outputId": 1,
      "inputModuleId": 146,
      "inputId": 15,
      "color": "#c9b70e"
    },
    {
      "id": 1454,
      "outputModuleId": 148,
      "outputId": 1,
      "inputModuleId": 146,
      "inputId": 2,
      "color": "#c9b70e"
    },
    {
      "id": 1455,
      "outputModuleId": 147,
      "outputId": 0,
      "inputModuleId": 137,
      "inputId": 0,
      "color": "#0c8e15"
    },
    {
      "id": 1317,
      "outputModuleId": 152,
      "outputId": 3,
      "inputModuleId": 137,
      "inputId": 2,
      "color": "#0c8e15"
    },
    {
      "id": 1413,
      "outputModuleId": 152,
      "outputId": 5,
      "inputModuleId": 137,
      "inputId": 5,
      "color": "#0c8e15"
    },
    {
      "id": 1297,
      "outputModuleId": 144,
      "outputId": 1,
      "inputModuleId": 146,
      "inputId": 3,
      "color": "#0c8e15"
    }
  ]
}