{
  "version": "1.1.3",
  "modules": [
    {
      "id": 1,
      "plugin": "Core",
      "version": "1.1.3",
      "model": "AudioInterface",
      "params": [],
      "leftModuleId": 137,
      "data": {
        "audio": {
          "driver": 6,
          "deviceName": "Speakers (Realtek High Definition Audio)",
          "offset": 0,
          "maxChannels": 8,
          "sampleRate": 44100,
          "blockSize": 256
        }
      },
      "pos": [
        132,
        0
      ]
    },
    {
      "id": 5,
      "plugin": "Core",
      "version": "1.1.3",
      "model": "MIDIToCVInterface",
      "params": [],
      "data": {
        "channels": 1,
        "polyMode": 0,
        "clockDivision": 24,
        "lastPitch": 8192,
        "lastMod": 0,
        "midi": {
          "driver": -11,
          "deviceName": "QWERTY keyboard (US)",
          "channel": -1
        }
      },
      "pos": [
        0,
        0
      ]
    },
    {
      "id": 137,
      "plugin": "Bogaudio",
      "version": "1.1.22",
      "model": "Bogaudio-Mix8",
      "params": [
        {
          "id": 0,
          "value": 0.801000118
        },
        {
          "id": 1,
          "value": 0.0
        },
        {
          "id": 2,
          "value": 0.0
        },
        {
          "id": 3,
          "value": 0.610500038
        },
        {
          "id": 4,
          "value": 0.0
        },
        {
          "id": 5,
          "value": 0.0
        },
        {
          "id": 6,
          "value": 0.616499662
        },
        {
          "id": 7,
          "value": 0.0
        },
        {
          "id": 8,
          "value": 0.0
        },
        {
          "id": 9,
          "value": 0.765000105
        },
        {
          "id": 10,
          "value": 0.0
        },
        {
          "id": 11,
          "value": 0.0380001813
        },
        {
          "id": 12,
          "value": 0.560499847
        },
        {
          "id": 13,
          "value": 0.0
        },
        {
          "id": 14,
          "value": 0.0
        },
        {
          "id": 15,
          "value": 0.909090936
        },
        {
          "id": 16,
          "value": 0.0
        },
        {
          "id": 17,
          "value": 0.0
        },
        {
          "id": 18,
          "value": 0.909090936
        },
        {
          "id": 19,
          "value": 0.0
        },
        {
          "id": 20,
          "value": 0.0
        },
        {
          "id": 21,
          "value": 0.909090936
        },
        {
          "id": 22,
          "value": 0.0
        },
        {
          "id": 23,
          "value": 0.0
        },
        {
          "id": 24,
          "value": 0.952590764
        },
        {
          "id": 25,
          "value": 0.0
        }
      ],
      "leftModuleId": 140,
      "rightModuleId": 1,
      "pos": [
        105,
        0
      ]
    },
    {
      "id": 138,
      "plugin": "Fundamental",
      "version": "1.2.1",
      "model": "SEQ3",
      "params": [
        {
          "id": 0,
          "value": 2.03599763
        },
        {
          "id": 1,
          "value": 0.0
        },
        {
          "id": 2,
          "value": 0.0
        },
        {
          "id": 3,
          "value": 8.0
        },
        {
          "id": 4,
          "value": 1.83000016
        },
        {
          "id": 5,
          "value": 5.83500099
        },
        {
          "id": 6,
          "value": 0.0
        },
        {
          "id": 7,
          "value": 2.0400002
        },
        {
          "id": 8,
          "value": 0.0
        },
        {
          "id": 9,
          "value": 3.97500014
        },
        {
          "id": 10,
          "value": 3.13499999
        },
        {
          "id": 11,
          "value": 0.0
        },
        {
          "id": 12,
          "value": 2.44500089
        },
        {
          "id": 13,
          "value": 0.165000007
        },
        {
          "id": 14,
          "value": 4.09499884
        },
        {
          "id": 15,
          "value": 2.03915389e-15
        },
        {
          "id": 16,
          "value": 0.795000374
        },
        {
          "id": 17,
          "value": 0.0
        },
        {
          "id": 18,
          "value": 0.0
        },
        {
          "id": 19,
          "value": 2.38499975
        },
        {
          "id": 20,
          "value": 0.0
        },
        {
          "id": 21,
          "value": 1.54499984
        },
        {
          "id": 22,
          "value": 0.67500031
        },
        {
          "id": 23,
          "value": 0.0
        },
        {
          "id": 24,
          "value": 1.94999933
        },
        {
          "id": 25,
          "value": 0.870000124
        },
        {
          "id": 26,
          "value": 3.31500053
        },
        {
          "id": 27,
          "value": 0.359999955
        },
        {
          "id": 28,
          "value": 0.0
        },
        {
          "id": 29,
          "value": 0.0
        },
        {
          "id": 30,
          "value": 0.0
        },
        {
          "id": 31,
          "value": 0.0
        },
        {
          "id": 32,
          "value": 0.0
        },
        {
          "id": 33,
          "value": 0.0
        },
        {
          "id": 34,
          "value": 0.0
        },
        {
          "id": 35,
          "value": 0.0
        }
      ],
      "rightModuleId": 139,
      "data": {
        "running": true,
        "gates": [
          1,
          1,
          1,
          1,
          1,
          1,
          1,
          1
        ]
      },
      "pos": [
        45,
        0
      ]
    },
    {
      "id": 139,
      "plugin": "AudibleInstruments",
      "version": "1.0.0",
      "model": "Elements",
      "params": [
        {
          "id": 0,
          "value": 0.757772028
        },
        {
          "id": 1,
          "value": 0.43372339
        },
        {
          "id": 2,
          "value": 0.130500019
        },
        {
          "id": 3,
          "value": 0.23654449
        },
        {
          "id": 4,
          "value": -24.7799969
        },
        {
          "id": 5,
          "value": 0.0270405672
        },
        {
          "id": 6,
          "value": 0.418310404
        },
        {
          "id": 7,
          "value": 0.170713365
        },
        {
          "id": 8,
          "value": 0.351401031
        },
        {
          "id": 9,
          "value": 0.022499999
        },
        {
          "id": 10,
          "value": 0.0339998975
        },
        {
          "id": 11,
          "value": 0.0644847751
        },
        {
          "id": 12,
          "value": 0.936311662
        },
        {
          "id": 13,
          "value": 0.654410362
        },
        {
          "id": 14,
          "value": 0.39318341
        },
        {
          "id": 15,
          "value": 0.210000008
        },
        {
          "id": 16,
          "value": 1.33101845
        },
        {
          "id": 17,
          "value": 0.699574947
        },
        {
          "id": 18,
          "value": 0.833436251
        },
        {
          "id": 19,
          "value": -0.733892202
        },
        {
          "id": 20,
          "value": 0.0966203213
        },
        {
          "id": 21,
          "value": -0.820460916
        },
        {
          "id": 22,
          "value": -0.191014647
        },
        {
          "id": 23,
          "value": 0.841137886
        },
        {
          "id": 24,
          "value": -0.101796031
        },
        {
          "id": 25,
          "value": -0.0433593988
        },
        {
          "id": 26,
          "value": -1.6243794
        },
        {
          "id": 27,
          "value": 0.0
        }
      ],
      "leftModuleId": 138,
      "rightModuleId": 140,
      "data": {
        "model": 2
      },
      "pos": [
        67,
        0
      ]
    },
    {
      "id": 140,
      "plugin": "AudibleInstruments",
      "version": "1.0.0",
      "model": "Links",
      "params": [],
      "leftModuleId": 139,
      "rightModuleId": 137,
      "pos": [
        101,
        0
      ]
    },
    {
      "id": 144,
      "plugin": "Fundamental",
      "version": "1.2.1",
      "model": "VCO",
      "params": [
        {
          "id": 0,
          "value": 1.0
        },
        {
          "id": 1,
          "value": 1.0
        },
        {
          "id": 2,
          "value": -54.0
        },
        {
          "id": 3,
          "value": -0.501999915
        },
        {
          "id": 4,
          "value": 0.0
        },
        {
          "id": 5,
          "value": 0.5
        },
        {
          "id": 6,
          "value": 0.64200002
        }
      ],
      "leftModuleId": 148,
      "rightModuleId": 178,
      "pos": [
        121,
        1
      ]
    },
    {
      "id": 146,
      "plugin": "AudibleInstruments",
      "version": "1.0.0",
      "model": "Elements",
      "params": [
        {
          "id": 0,
          "value": 1.0
        },
        {
          "id": 1,
          "value": 0.910714209
        },
        {
          "id": 2,
          "value": 0.353419483
        },
        {
          "id": 3,
          "value": 0.201576665
        },
        {
          "id": 4,
          "value": -27.5699959
        },
        {
          "id": 5,
          "value": -0.00816241559
        },
        {
          "id": 6,
          "value": 0.450369358
        },
        {
          "id": 7,
          "value": 0.296999902
        },
        {
          "id": 8,
          "value": 0.395913482
        },
        {
          "id": 9,
          "value": 0.0464999899
        },
        {
          "id": 10,
          "value": 0.0275603533
        },
        {
          "id": 11,
          "value": 0.956141651
        },
        {
          "id": 12,
          "value": 0.47074002
        },
        {
          "id": 13,
          "value": 0.379695624
        },
        {
          "id": 14,
          "value": 0.330999762
        },
        {
          "id": 15,
          "value": 0.961960495
        },
        {
          "id": 16,
          "value": 1.35599971
        },
        {
          "id": 17,
          "value": -0.192791343
        },
        {
          "id": 18,
          "value": 1.0
        },
        {
          "id": 19,
          "value": 0.0254280586
        },
        {
          "id": 20,
          "value": -0.0503076613
        },
        {
          "id": 21,
          "value": 0.717104554
        },
        {
          "id": 22,
          "value": 1.0
        },
        {
          "id": 23,
          "value": -0.411701083
        },
        {
          "id": 24,
          "value": 0.523777604
        },
        {
          "id": 25,
          "value": 0.083381176
        },
        {
          "id": 26,
          "value": 0.246265173
        },
        {
          "id": 27,
          "value": 0.0
        }
      ],
      "leftModuleId": 147,
      "rightModuleId": 148,
      "data": {
        "model": 0
      },
      "pos": [
        67,
        1
      ]
    },
    {
      "id": 147,
      "plugin": "Fundamental",
      "version": "1.2.1",
      "model": "LFO",
      "params": [
        {
          "id": 0,
          "value": 1.0
        },
        {
          "id": 1,
          "value": 1.0
        },
        {
          "id": 2,
          "value": -2.43799877
        },
        {
          "id": 3,
          "value": 0.0
        },
        {
          "id": 4,
          "value": 0.0
        },
        {
          "id": 5,
          "value": 0.5
        },
        {
          "id": 6,
          "value": 0.0
        }
      ],
      "rightModuleId": 146,
      "pos": [
        57,
        1
      ]
    },
    {
      "id": 148,
      "plugin": "ImpromptuModular",
      "version": "1.1.1",
      "model": "Clocked",
      "params": [
        {
          "id": 0,
          "value": 41.0
        },
        {
          "id": 1,
          "value": -2.0
        },
        {
          "id": 2,
          "value": 5.0
        },
        {
          "id": 3,
          "value": -5.0
        },
        {
          "id": 4,
          "value": 0.0
        },
        {
          "id": 5,
          "value": -0.329999655
        },
        {
          "id": 6,
          "value": 0.0
        },
        {
          "id": 7,
          "value": -0.00399994152
        },
        {
          "id": 8,
          "value": 0.5
        },
        {
          "id": 9,
          "value": 0.648499966
        },
        {
          "id": 10,
          "value": 0.5
        },
        {
          "id": 11,
          "value": 0.5
        },
        {
          "id": 12,
          "value": 0.0
        },
        {
          "id": 13,
          "value": 0.0
        },
        {
          "id": 14,
          "value": 0.0
        },
        {
          "id": 15,
          "value": 0.0
        },
        {
          "id": 16,
          "value": 0.0
        },
        {
          "id": 17,
          "value": 0.0
        },
        {
          "id": 18,
          "value": 0.0
        },
        {
          "id": 19,
          "value": 0.0
        }
      ],
      "leftModuleId": 146,
      "rightModuleId": 144,
      "data": {
        "panelTheme": 0,
        "running": true,
        "displayDelayNoteMode": true,
        "bpmDetectionMode": true,
        "emitResetOnStopRun": false,
        "ppqn": 4,
        "resetClockOutputsHigh": true
      },
      "pos": [
        101,
        1
      ]
    },
    {
      "id": 178,
      "plugin": "Fundamental",
      "version": "1.2.1",
      "model": "ADSR",
      "params": [
        {
          "id": 0,
          "value": 0.577999949
        },
        {
          "id": 1,
          "value": 0.5
        },
        {
          "id": 2,
          "value": 0.268999785
        },
        {
          "id": 3,
          "value": 0.5
        }
      ],
      "leftModuleId": 144,
      "rightModuleId": 179,
      "pos": [
        131,
        1
      ]
    },
    {
      "id": 179,
      "plugin": "Fundamental",
      "version": "1.2.1",
      "model": "VCA",
      "params": [
        {
          "id": 0,
          "value": 1.0
        },
        {
          "id": 1,
          "value": 1.0
        }
      ],
      "leftModuleId": 178,
      "pos": [
        139,
        1
      ]
    }
  ],
  "cables": [
    {
      "id": 1211,
      "outputModuleId": 137,
      "outputId": 1,
      "inputModuleId": 1,
      "inputId": 1,
      "color": "#0986ad"
    },
    {
      "id": 1212,
      "outputModuleId": 137,
      "outputId": 0,
      "inputModuleId": 1,
      "inputId": 0,
      "color": "#c9b70e"
    },
    {
      "id": 1214,
      "outputModuleId": 139,
      "outputId": 1,
      "inputModuleId": 140,
      "inputId": 2,
      "color": "#c9b70e"
    },
    {
      "id": 1215,
      "outputModuleId": 139,
      "outputId": 0,
      "inputModuleId": 140,
      "inputId": 1,
      "color": "#0c8e15"
    },
    {
      "id": 1216,
      "outputModuleId": 140,
      "outputId": 4,
      "inputModuleId": 137,
      "inputId": 2,
      "color": "#c91847"
    },
    {
      "id": 1293,
      "outputModuleId": 148,
      "outputId": 1,
      "inputModuleId": 146,
      "inputId": 2,
      "color": "#0c8e15"
    },
    {
      "id": 1297,
      "outputModuleId": 144,
      "outputId": 0,
      "inputModuleId": 146,
      "inputId": 3,
      "color": "#0c8e15"
    },
    {
      "id": 1298,
      "outputModuleId": 147,
      "outputId": 0,
      "inputModuleId": 144,
      "inputId": 3,
      "color": "#c91847"
    },
    {
      "id": 1302,
      "outputModuleId": 147,
      "outputId": 0,
      "inputModuleId": 146,
      "inputId": 7,
      "color": "#c91847"
    },
    {
      "id": 1307,
      "outputModuleId": 147,
      "outputId": 0,
      "inputModuleId": 146,
      "inputId": 8,
      "color": "#0986ad"
    },
    {
      "id": 1261,
      "outputModuleId": 140,
      "outputId": 5,
      "inputModuleId": 137,
      "inputId": 5,
      "color": "#c9b70e"
    },
    {
      "id": 1495,
      "outputModuleId": 146,
      "outputId": 1,
      "inputModuleId": 140,
      "inputId": 4,
      "color": "#c91847"
    },
    {
      "id": 1496,
      "outputModuleId": 146,
      "outputId": 0,
      "inputModuleId": 140,
      "inputId": 3,
      "color": "#0986ad"
    },
    {
      "id": 1498,
      "outputModuleId": 148,
      "outputId": 2,
      "inputModuleId": 139,
      "inputId": 2,
      "color": "#0c8e15"
    },
    {
      "id": 1502,
      "outputModuleId": 138,
      "outputId": 2,
      "inputModuleId": 139,
      "inputId": 12,
      "color": "#c91847"
    },
    {
      "id": 1503,
      "outputModuleId": 138,
      "outputId": 3,
      "inputModuleId": 139,
      "inputId": 10,
      "color": "#0986ad"
    },
    {
      "id": 1516,
      "outputModuleId": 148,
      "outputId": 3,
      "inputModuleId": 178,
      "inputId": 4,
      "color": "#0c8e15"
    },
    {
      "id": 1494,
      "outputModuleId": 147,
      "outputId": 0,
      "inputModuleId": 137,
      "inputId": 3,
      "color": "#0c8e15"
    },
    {
      "id": 1520,
      "outputModuleId": 179,
      "outputId": 0,
      "inputModuleId": 137,
      "inputId": 8,
      "color": "#0986ad"
    },
    {
      "id": 1521,
      "outputModuleId": 144,
      "outputId": 3,
      "inputModuleId": 179,
      "inputId": 1,
      "color": "#c9b70e"
    },
    {
      "id": 1522,
      "outputModuleId": 147,
      "outputId": 3,
      "inputModuleId": 179,
      "inputId": 2,
      "color": "#0c8e15"
    }
  ]
}